<svg id="Слой_1" data-name="Слой 1" xmlns="http://www.w3.org/2000/svg" viewBox="0 0 86.81 71.85">
  <g>
    <path d="M264.23,365a37.21,37.21,0,0,1,.31,5.52c0,.59,0,1.23,0,1.91s.06,1.41.05,2.18.27,1.58,0,2.43a21.92,21.92,0,0,0,.05,2.67c0,.93-.1,1.9,0,2.9s-.32,2.05,0,3.13c.08,1.08.05,2.19,0,3.34a16.79,16.79,0,0,0,0,3.54,10.46,10.46,0,0,0,0,3.74,7.49,7.49,0,0,0,0,3.93,37.67,37.67,0,0,0,0,4.11c0,1.39.09,2.82,0,4.27a14.61,14.61,0,0,1,0,4.43,17.55,17.55,0,0,1,0,4.58c-.14,1.55.23,3.13,0,4.72,0,1.6.06,3.22,0,4.86,0,.67-.09,1.34-.11,2v1a.73.73,0,0,0,0,.27.72.72,0,0,0,.25-.1h.54l.63,0c.42,0,.84,0,1.27,0,.85,0,1.7,0,2.56.07a21,21,0,0,1,5.19,0c1.74,0,3.51.15,5.28,0,.89,0,1.78,0,2.68,0l1.34,0h.35l.11,0h0l0-.08,0-.06v-.32c0-.44,0-.89,0-1.34a23.92,23.92,0,0,0-.1-2.68c-.17-1.77.08-3.54,0-5.28.26-1.75-.08-3.48,0-5.19s.15-3.41,0-5.09-.1-3.34,0-5c-.4-1.64.11-3.25,0-4.85.17-1.6,0-3.17,0-4.72s.18-3.08,0-4.58c0-1.51-.13-3,0-4.44-.2-1.45.16-2.87,0-4.27s0-2.76,0-4.1a15.69,15.69,0,0,0,0-3.93,25.85,25.85,0,0,1,0-3.74,28.18,28.18,0,0,0,0-3.55,5.14,5.14,0,0,1,.08-1.11V366l0-.08a.75.75,0,0,0,0-.16c0-.11,0-.24.05-.35a1.11,1.11,0,0,0-.36,0l-.17.05a1.79,1.79,0,0,1-.19.09c-1.08.07-2.13-.32-3.13,0a10.79,10.79,0,0,1-2.9,0l-2.67-.05c-3.83-.06-6.84-.14-8.89-.21a16.38,16.38,0,0,1-3.15-.24,19.68,19.68,0,0,1,3.87-.27c2.51-.08,6.19-.16,10.84-.23a14,14,0,0,1,2.9-.05,27,27,0,0,1,3.13,0,4,4,0,0,1,.4-.06l.48,0c.32,0,.65,0,1,0,0,.31,0,.62,0,.94,0,.15,0,.31,0,.47v.42c0,.37-.06.75-.06,1.12,0,1.15-.08,2.33,0,3.55s-.09,2.46,0,3.74a15.23,15.23,0,0,0,0,3.93,35.15,35.15,0,0,0,0,4.1,16.51,16.51,0,0,0,0,4.27c.1,1.46,0,2.93,0,4.44s.07,3,0,4.58a27.53,27.53,0,0,1,0,4.72c.08,1.6,0,3.21,0,4.85s0,3.3,0,5a36,36,0,0,0,0,5.09c0,1.71-.05,3.44,0,5.19s-.08,3.51,0,5.28a15,15,0,0,0-.15,2.68c0,.45,0,.9.07,1.34l0,.36,0,.63c0,.42,0,.85,0,1.28h0l-2.27.05h-1.34c-.9,0-1.79,0-2.68-.05-1.77,0-3.54,0-5.28,0s-3.48-.13-5.19,0a21.86,21.86,0,0,1-2.56,0l-1.27,0h-.95l-.41,0-1.76,0c0-.65,0-1.29,0-1.93v-1q0-1,.09-2a32.87,32.87,0,0,0,0-4.86,15.88,15.88,0,0,1,0-4.72c-.1-1.55.19-3.08,0-4.58a22.63,22.63,0,0,0,0-4.43,32.09,32.09,0,0,0,0-4.27c-.14-1.4.08-2.77,0-4.11s.22-2.65,0-3.93c0-1.27,0-2.52,0-3.74-.4-1.21,0-2.39,0-3.54a15.48,15.48,0,0,1,0-3.34,8.65,8.65,0,0,1,0-3.13c.09-1-.12-2,.05-2.9a15.74,15.74,0,0,1,0-2.67,18.13,18.13,0,0,0,0-2.43,13,13,0,0,1,.05-2.18c0-.68,0-1.32.05-1.91A34.54,34.54,0,0,1,264.23,365Z" transform="translate(-263.2 -360.57)" style="fill: #e7e7f3"/>
    <path d="M279.78,376.9c0,.11-.11.22-.29.32l-.1,0s-.08.06-.12.05-.08.27-.12.05-.09,0-.14,0-.1-.09-.15,0c-.06.29-.11-.31-.17,0-.05.08-.11.06-.17,0-.06-.22-.12,0-.19,0-.06-.27-.13-.15-.19,0-.07-.36-.14-.3-.21,0-.07,0-.14-.12-.21,0s-.15.09-.22,0c-.08.24-.16.23-.24,0-.07.25-.16.15-.24,0s-.16.22-.24,0c-.09,0-.17.06-.26,0s-.17-.23-.25,0c-.09.06-.18.15-.27,0-.09.27-.18.15-.27,0-.09,0-.19-.15-.28,0-.09,0-.19.12-.28,0s-.19-.17-.28,0-.19-.07-.28,0c-.09-.26-.18.08-.27,0s-.18-.15-.26,0-.18.1-.26,0c-.09.39-.17-.11-.26,0-.08-.17-.16,0-.24,0s-.16-.19-.24,0c-.08,0-.16.12-.23,0-.08.2-.15-.16-.23,0a.31.31,0,0,1-.21,0c-.07-.31-.14-.05-.21,0s-.13.18-.19,0c-.07,0-.13-.16-.19,0s-.12-.45-.17,0c-.06.08-.11-.31-.17,0s-.1,0-.15,0l-.14,0c-.4-.14-.63-.29-.63-.46s.29-.36.77-.5c.05,0,.1-.23.15,0,.06,0,.11-.17.17,0,.05-.29.11-.06.17,0s.12.08.19,0,.13.08.19,0c.07.17.14.13.21,0,.07.17.14,0,.21,0,.08.26.15.08.23,0s.15,0,.23,0,.15-.06.24,0c.08-.12.16-.17.24,0,.09-.08.17,0,.26,0s.17,0,.26,0,.17.28.26,0c.09,0,.18.05.27,0s.19.08.28,0c.09.28.19.11.28,0s.19,0,.28,0a.53.53,0,0,1,.28,0c.09-.08.18.13.27,0s.18.13.27,0,.17-.13.25,0,.17.27.26,0c.08-.05.16-.38.24,0,.08-.1.17.2.24,0,.08.3.16,0,.24,0s.14.15.22,0,.14.07.21,0,.14.22.21,0c.06,0,.13,0,.19,0,.07-.39.13,0,.19,0s.12-.26.17,0c.06-.3.11,0,.17,0s.1-.13.15,0c.05-.21.09.12.14,0,0,.14.08,0,.12.05s.08,0,.12.05l.1,0C279.67,376.68,279.78,376.79,279.78,376.9Z" transform="translate(-263.2 -360.57)" style="fill: #e7e7f3"/>
    <path d="M279.78,387.36c0,.11-.11.21-.29.31l-.1.05s-.08.06-.12,0-.08.27-.12,0c0-.06-.09,0-.14.05s-.1-.1-.15,0-.11-.32-.17,0c-.05.08-.11.05-.17,0-.06-.22-.12,0-.19,0-.06-.27-.13-.16-.19,0-.07-.36-.14-.31-.21,0-.07,0-.14-.13-.21,0s-.15.09-.22,0c-.08.24-.16.23-.24,0-.07.26-.16.16-.24,0s-.16.23-.24,0c-.09,0-.17.06-.26,0s-.17-.22-.25,0c-.09.07-.18.16-.27,0-.09.27-.18.15-.27,0-.09,0-.19-.16-.28,0-.09,0-.19.12-.28,0s-.19-.16-.28,0-.19-.07-.28,0c-.09-.26-.18.08-.27,0s-.18-.15-.26,0-.18.1-.26,0c-.09.4-.17-.1-.26,0-.08-.16-.16,0-.24,0s-.16-.18-.24,0c-.08,0-.16.13-.23,0-.08.19-.15-.17-.23,0a.39.39,0,0,1-.21,0c-.07-.31-.14-.05-.21,0s-.13.17-.19,0c-.07,0-.13-.17-.19,0s-.12-.45-.17,0c-.06.07-.11-.32-.17,0s-.1,0-.15,0l-.14-.05c-.4-.13-.63-.29-.63-.45s.29-.36.77-.5c.05,0,.1-.24.15-.05.06,0,.11-.16.17,0,.05-.28.11,0,.17,0s.12.08.19,0,.13.08.19,0c.07.18.14.13.21,0,.07.18.14,0,.21,0,.08.27.15.08.23,0s.15,0,.23,0,.15-.07.24,0c.08-.13.16-.17.24,0,.09-.09.17,0,.26,0s.17,0,.26,0,.17.28.26,0c.09,0,.18,0,.27,0s.19.07.28,0c.09.29.19.11.28,0s.19,0,.28,0a.53.53,0,0,1,.28,0c.09-.09.18.12.27,0s.18.13.27,0,.17-.13.25,0,.17.26.26,0c.08-.06.16-.39.24,0,.08-.1.17.19.24,0,.08.3.16,0,.24,0s.14.16.22,0,.14.08.21,0,.14.22.21,0c.06,0,.13,0,.19,0,.07-.4.13,0,.19,0s.12-.26.17,0c.06-.3.11,0,.17,0s.1-.12.15.05c.05-.22.09.11.14,0,0,.14.08,0,.12,0s.08,0,.12.05l.1.05C279.67,387.14,279.78,387.25,279.78,387.36Z" transform="translate(-263.2 -360.57)" style="fill: #e7e7f3"/>
    <path d="M279.78,397.81c0,.11-.11.22-.29.32l-.1.05s-.08.06-.12,0-.08.28-.12,0c0-.07-.09,0-.14,0s-.1-.09-.15,0c-.06.29-.11-.31-.17,0-.05.07-.11.05-.17,0-.06-.21-.12,0-.19,0-.06-.26-.13-.15-.19,0-.07-.36-.14-.3-.21,0-.07,0-.14-.13-.21,0s-.15.09-.22,0c-.08.25-.16.23-.24,0-.07.26-.16.15-.24,0s-.16.23-.24,0c-.09,0-.17.06-.26,0s-.17-.23-.25,0c-.09.07-.18.15-.27,0-.09.28-.18.16-.27,0-.09.05-.19-.15-.28,0-.09-.05-.19.12-.28,0s-.19-.16-.28,0-.19-.08-.28,0c-.09-.26-.18.09-.27,0s-.18-.15-.26,0-.18.1-.26,0c-.09.4-.17-.1-.26,0-.08-.17-.16,0-.24,0s-.16-.18-.24,0c-.08,0-.16.13-.23,0-.08.2-.15-.16-.23,0s-.14,0-.21,0c-.07-.31-.14-.06-.21,0s-.13.18-.19,0c-.07,0-.13-.16-.19,0s-.12-.45-.17,0c-.06.07-.11-.32-.17,0s-.1,0-.15,0l-.14,0c-.4-.13-.63-.29-.63-.46s.29-.35.77-.5c.05,0,.1-.23.15,0,.06,0,.11-.17.17,0,.05-.29.11-.05.17,0s.12.08.19,0,.13.09.19,0c.07.18.14.13.21,0,.07.17.14,0,.21,0,.08.26.15.08.23,0s.15,0,.23,0,.15-.07.24,0c.08-.12.16-.17.24,0,.09-.08.17,0,.26,0s.17,0,.26,0,.17.29.26,0c.09,0,.18.05.27,0s.19.08.28,0c.09.29.19.11.28,0s.19,0,.28,0a.66.66,0,0,1,.28,0c.09-.08.18.13.27,0s.18.14.27,0,.17-.13.25,0,.17.26.26,0c.08,0,.16-.38.24,0,.08-.1.17.2.24,0,.08.29.16,0,.24,0s.14.16.22,0,.14.08.21,0,.14.22.21,0c.06,0,.13,0,.19,0,.07-.39.13,0,.19,0s.12-.26.17,0c.06-.3.11,0,.17,0s.1-.13.15,0c.05-.21.09.12.14.05,0,.14.08,0,.12,0s.08,0,.12.05l.1.05C279.67,397.59,279.78,397.7,279.78,397.81Z" transform="translate(-263.2 -360.57)" style="fill: #e7e7f3"/>
    <path d="M268.13,371.88a9.45,9.45,0,0,1,.31,2.82c0,.3,0,.63.05,1a10,10,0,0,1,.05,1.12c-.15.39.27.8,0,1.24a5.21,5.21,0,0,0,0,1.36,9.27,9.27,0,0,0,0,1.48c.29.52-.32,1.05,0,1.6a9.68,9.68,0,0,1,0,1.71,4.26,4.26,0,0,0,0,1.81,2.79,2.79,0,0,0,0,1.91,2.06,2.06,0,0,0,0,2,10.55,10.55,0,0,0,0,2.1,17.54,17.54,0,0,1,0,2.18,4,4,0,0,1,0,2.26,4.91,4.91,0,0,1,0,2.35c-.15.79.23,1.59,0,2.41v.65c0,.06,0,.1,0,.14h.13l0,0h.11l.31,0,.64.05a4.24,4.24,0,0,0,1.27-.14,11.3,11.3,0,0,1,2.6,0,5.56,5.56,0,0,1,2.66,0,22,22,0,0,0,2.69,0c.46,0,.91,0,1.37,0l.34,0h0l.12,0h0a.1.1,0,0,0,.05-.08l0-.06c0-.11,0-.23,0-.34a7,7,0,0,0-.09-1.37,22.11,22.11,0,0,1,0-2.7,13.8,13.8,0,0,0,0-2.65,18.81,18.81,0,0,0,0-2.6,12.68,12.68,0,0,1,0-2.54c-.4-.84.1-1.66,0-2.48a14.94,14.94,0,0,0,0-2.41,18.3,18.3,0,0,0,0-2.34,15.45,15.45,0,0,1,0-2.26c-.2-.74.17-1.47,0-2.19s0-1.41,0-2.09a4.15,4.15,0,0,0,0-2,3.85,3.85,0,0,0,0-.48l0-.25V373a.54.54,0,0,0,0-.08c0-.1,0-.15.08-.37v0c-.1,0-.2,0-.34-.07a1.67,1.67,0,0,0-.35,0,2.1,2.1,0,0,0-.43.05c-.59,0-1.15-.45-1.71,0-.55.07-1.08-.32-1.59,0s-1,0-1.49-.05l-1.36,0c-3.91-.13-6.15-.29-6.15-.46s2.77-.35,7.51-.5a3.72,3.72,0,0,1,1.49,0,7,7,0,0,1,1.59,0c.56-.29,1.12,0,1.71,0h.95a12.41,12.41,0,0,0,1.47,0v.07a7.92,7.92,0,0,1,0,1.56,1.13,1.13,0,0,1,0,.14v.12a2.11,2.11,0,0,0,0,.25,2.58,2.58,0,0,0,0,.48,4,4,0,0,0,0,2,8.14,8.14,0,0,0,0,2.09,4.39,4.39,0,0,0,0,2.19c.1.74,0,1.49,0,2.26s.07,1.55,0,2.34a7.22,7.22,0,0,1,0,2.41,22.76,22.76,0,0,1,0,2.48c.1.84,0,1.69,0,2.54a9.84,9.84,0,0,0,0,2.6c0,.88,0,1.76,0,2.65a20.27,20.27,0,0,0,0,2.7,3.77,3.77,0,0,0-.14,1.37l.15,2.29h0c-.42,0-.85,0-1.29,0h-1l-1.37-.05c-.9,0-1.8,0-2.69,0s-1.78-.13-2.66,0-1.74-.13-2.6,0c-.42,0-.85.07-1.27.08l-.64,0-.31,0h-.21l-.29,0c-.51,0-1,0-1.46-.05,0-.53.06-1,.07-1.51,0-.12,0-.23,0-.35s0-.14,0-.21a2.71,2.71,0,0,0-.09-.41c0-.82-.38-1.62,0-2.41-.1-.8.19-1.58,0-2.35a5.93,5.93,0,0,0,0-2.26,8.86,8.86,0,0,0,0-2.18,14.68,14.68,0,0,1,0-2.1c-.17-.68.22-1.35,0-2,0-.66,0-1.29,0-1.91-.4-.62,0-1.23,0-1.81s-.26-1.16,0-1.71c-.3-.55,0-1.08,0-1.6s-.13-1,0-1.48c-.21-.47.12-.93,0-1.36a5.26,5.26,0,0,0,.05-1.24,3.4,3.4,0,0,1,0-1.11c0-.35,0-.68.05-1A9.62,9.62,0,0,1,268.13,371.88Z" transform="translate(-263.2 -360.57)" style="fill: #e7e7f3"/>
    <path d="M275.17,414.05c0,.05-.11.11-.3.18l-.35.1-.46.15-.37.14-.19.09-.21.08c-.2-.08-.2.35-.43.22a.75.75,0,0,0-.45.28c-.13.14-.38.11-.45.35s-.12.17-.25.17-.24,0-.2.25a1.5,1.5,0,0,1-.19.25,2.5,2.5,0,0,1-.23.23.28.28,0,0,0-.27.22c-.05.11-.07.23-.12.34-.33.06-.39.34-.32.64-.21,0-.35.11-.38.24a.63.63,0,0,0,.13.46c0,.12-.09.23-.14.35a1.8,1.8,0,0,0-.05.19.52.52,0,0,0,0,.21c0,.13,0,.27,0,.4a1.38,1.38,0,0,1,0,.4.74.74,0,0,1,.19.4.75.75,0,0,1,0,.2,1.19,1.19,0,0,1-.08.22c.28.24.25.5.2.82a.57.57,0,0,0,.18.4.46.46,0,0,1,.17.4l.05.1.06.09.13.18c.08.13.18.24.25.37s.05.16.08.23l.12.2a.85.85,0,0,0,.17.16.53.53,0,0,0,.26.07l.4.24a1.29,1.29,0,0,1,.34.32c.41-.06.6.17.85.42a2.48,2.48,0,0,1,.44.2.71.71,0,0,0,.48.07,2,2,0,0,0,.49,0,1,1,0,0,1,.48.05,2.23,2.23,0,0,0,.5.07,1,1,0,0,0,.48-.16.66.66,0,0,1,.46-.15,1,1,0,0,0,.46-.12.33.33,0,0,0,.26,0,.66.66,0,0,0,.2-.14l.1-.08.08-.08a.45.45,0,0,1,.21-.12,3.3,3.3,0,0,1,.41-.23.7.7,0,0,0,.33-.33l.15-.18.13-.18.16-.16.18-.15a.34.34,0,0,1,.16-.42c.13-.09.31-.16.33-.32a.56.56,0,0,0,.24-.37,1.36,1.36,0,0,1,.11-.42.83.83,0,0,1,.16-.4.31.31,0,0,1,.05-.1.43.43,0,0,0,0-.11.38.38,0,0,0,0-.21,1.52,1.52,0,0,0,0-.21l0-.21a.67.67,0,0,1,.07-.41.38.38,0,0,1,0-.4.41.41,0,0,0,0-.39l0-.2c0-.06,0-.12-.05-.18s0-.25-.07-.38a.34.34,0,0,0,0-.4c-.07-.11-.19-.19-.25-.3s-.39-.32-.32-.63c-.06-.11-.1-.22-.15-.32a.38.38,0,0,0-.24-.24c-.09-.07-.08-.22-.11-.35s-.1-.22-.31-.14-.13-.17-.17-.28-.12-.19-.28-.13-.3-.24-.45-.35-.31-.19-.45-.28a8.11,8.11,0,0,0-1.67-.68c-.41-.11-.64-.2-.64-.28s.07-.09.22-.13l.27-.05.17,0h.2a5.14,5.14,0,0,1,2.4.58c.19.09.51,0,.59.33a1.45,1.45,0,0,0,.33.16.53.53,0,0,1,.26.27.37.37,0,0,1,.38.17,2.08,2.08,0,0,0,.2.36,1.61,1.61,0,0,1,.24.34,1.25,1.25,0,0,0,.3.31c.29.16.25.53.47.75a1,1,0,0,0,.09.47,1.2,1.2,0,0,0,.3.39.83.83,0,0,0,.08.49,2.26,2.26,0,0,1,.11.22,1,1,0,0,1,.07.25.63.63,0,0,0-.06.51,5.17,5.17,0,0,0,.18.51,1.19,1.19,0,0,1,0,.53l0,.27a.82.82,0,0,0,0,.27,10.7,10.7,0,0,1-.22,1.1,2.35,2.35,0,0,1-.1.58,1.22,1.22,0,0,1-.33.49,1.54,1.54,0,0,1-.26.53,5.46,5.46,0,0,1-.36.48,1.17,1.17,0,0,1-.15.27,2.18,2.18,0,0,1-.21.22l-.22.21-.23.21a1.42,1.42,0,0,1-.52.34.87.87,0,0,0-.46.43,9.32,9.32,0,0,1-1.13.59l-.63.17a5,5,0,0,0-.62.2,1,1,0,0,0-.67-.05,6.43,6.43,0,0,0-.65.18,2.43,2.43,0,0,1-.66,0,4.72,4.72,0,0,1-.65-.15,4.53,4.53,0,0,1-.64-.13,6.44,6.44,0,0,1-.61-.24.76.76,0,0,1-.3-.1l-.28-.17a2,2,0,0,0-.55-.31,1.06,1.06,0,0,1-.51-.37,2.22,2.22,0,0,0-.47-.4,2.53,2.53,0,0,1-.27-.18,1.45,1.45,0,0,1-.22-.21,1.59,1.59,0,0,1-.2-.24,1.18,1.18,0,0,1-.12-.28,2.14,2.14,0,0,1-.26-.55,1.3,1.3,0,0,0-.14-.26.5.5,0,0,0-.1-.11l-.12-.1c-.11-.16-.29-.29-.4-.46a.55.55,0,0,1,0-.61,1.13,1.13,0,0,1-.11-.55.93.93,0,0,0-.11-.54.52.52,0,0,0,.08-.28.82.82,0,0,0,0-.27,1.93,1.93,0,0,1-.11-.52c0-.18.09-.35.11-.52a1.1,1.1,0,0,0,0-.51.57.57,0,0,1,0-.26.92.92,0,0,1,.09-.23,2,2,0,0,0,.17-.46.61.61,0,0,1,.19-.44c.1-.13.22-.24.2-.42a4.84,4.84,0,0,1,.47-.76.31.31,0,0,1,.14-.43c.13-.08.29-.13.4-.21s.15-.23.22-.35a.32.32,0,0,1,.36-.19.32.32,0,0,1,.2-.34c.12-.05.27-.05.39-.09s.32-.36.59-.33a.23.23,0,0,1,.26-.18c.12,0,.23,0,.31-.07s.35-.14.53-.16a.58.58,0,0,1,.24-.11.7.7,0,0,1,.25,0l.43-.05h.54a2.06,2.06,0,0,1,.39,0C275.06,413.94,275.17,414,275.17,414.05Z" transform="translate(-263.2 -360.57)" style="fill: #e7e7f3"/>
    <path d="M292.56,365a5.27,5.27,0,0,1,.16,1.46c0,1,.1,2.38.15,4.21,0,.61,0,1.26.05,2s.06,1.44.05,2.23.27,1.62,0,2.5a23.11,23.11,0,0,0,.05,2.74c.05.95-.09,1.95,0,3,.29,1-.32,2.1,0,3.21.08,1.11.06,2.25,0,3.43a17.08,17.08,0,0,0,0,3.64,11.08,11.08,0,0,0,0,3.85,8,8,0,0,0,0,4,39.71,39.71,0,0,0,0,4.22c0,1.43.09,2.9,0,4.39a15.41,15.41,0,0,1,0,4.55,19,19,0,0,1,0,4.71c-.15,1.59.22,3.21,0,4.85,0,1.64.06,3.3,0,5,0,.39,0,.78-.07,1.18v.18l0,.08c0,.06,0,.12,0,.18H294q.69,0,1.38-.12a45.61,45.61,0,0,1,5.23,0,22.1,22.1,0,0,1,5.33,0c1.79,0,3.6.15,5.43,0,.52,0,1,0,1.55,0,.72,0,.54,0,.64,0a.2.2,0,0,1,0-.07v-.2c0-.4,0-.8,0-1.21a39,39,0,0,0,0-5.51c-.17-1.83.08-3.64,0-5.43.26-1.8-.08-3.58,0-5.34s.15-3.5,0-5.22-.1-3.43,0-5.11c-.39-1.69.1-3.35,0-5,.17-1.64,0-3.26,0-4.85s.18-3.16,0-4.71q0-.46,0-.93v-.46c0-.14,0-.37,0-.35h0l-.05-.17-.11-.32c-.06-.21-.13-.43-.19-.65a11.74,11.74,0,0,1-.32-1.3c-.61-1.37-.68-2.88-1.22-4.22s-.82-2.72-1.17-4.05a16.45,16.45,0,0,0-1.11-3.87c-.16-.6-.37-1.17-.56-1.74-.05-.14-.1-.29-.14-.43l-.07-.21-.1-.32c-.13-.49-.26-1-.35-1.41l.41-.09.73-.2.36-.1.17,0,.12,0,.89-.22a13.62,13.62,0,0,0,1.71-.54,5,5,0,0,1,.85-.21h.27l.26,0a2.51,2.51,0,0,0,0-.31v-.13h0l0,.06a1.4,1.4,0,0,0-.39.14h-.56l-.81-.09a4.41,4.41,0,0,0-1.58.06,11.39,11.39,0,0,1-3,0l-2.74-.05c-3.93-.06-7-.14-9.13-.21a17.29,17.29,0,0,1-3.24-.24,20.82,20.82,0,0,1,4-.27c2.58-.08,6.36-.16,11.13-.23a14.74,14.74,0,0,1,3-.05c.52,0,1,0,1.58-.06a7.3,7.3,0,0,1,.81,0h.45l.65,0c.31-.05.65-.08,1-.1,0,.27,0,.54,0,.83s0,.39,0,.58,0,.65,0,1l-.71.19-.35.09-.18,0-.07,0h-.05c-.28.06-.57.13-.85.21-.56.17-1.14.32-1.73.49-.29.08-.58.16-.87.26l-.12,0h0l-.08,0a.91.91,0,0,0-.14.07l-.05.05a1.89,1.89,0,0,1,.12.27l.19.76a15.27,15.27,0,0,0,.52,1.75,16.18,16.18,0,0,0,1.18,3.86,37.25,37.25,0,0,0,1.23,4,17,17,0,0,0,1.27,4.2c.15.41.29.84.42,1.27s.26.94.4,1.42,0,.69,0,1,0,.62,0,.93c-.05,1.55.07,3.12,0,4.71a29.07,29.07,0,0,1,0,4.85c.08,1.64,0,3.3,0,5s0,3.38,0,5.11a36.39,36.39,0,0,0,0,5.22c0,1.76,0,3.54,0,5.34s-.08,3.6,0,5.43a25.37,25.37,0,0,0,0,5.51c0,.41,0,.81,0,1.21s0,.67,0,1v1.15c-2.44,0-2.94,0-4.08-.05-1.83,0-3.64,0-5.43,0s-3.57-.13-5.33,0-3.51-.13-5.23,0l-1.38.06H291.6c0-.39,0-.77,0-1.15v-1c0-.4,0-.79.07-1.18a33.13,33.13,0,0,0,0-5,17.12,17.12,0,0,1,0-4.85c-.1-1.6.19-3.17,0-4.71a23.88,23.88,0,0,0,0-4.55,35.77,35.77,0,0,0,0-4.39c-.14-1.44.08-2.84,0-4.22s.22-2.72,0-4c0-1.32,0-2.6,0-3.85-.4-1.24,0-2.46,0-3.64a15.08,15.08,0,0,1,0-3.43,8.64,8.64,0,0,1,0-3.21c.08-1-.13-2,0-3a17.73,17.73,0,0,1,0-2.74,21.23,21.23,0,0,0,0-2.5,13.65,13.65,0,0,1,0-2.23c0-.71,0-1.36.05-2,.05-1.83.1-3.25.15-4.21A5,5,0,0,1,292.56,365Z" transform="translate(-263.2 -360.57)" style="fill: #e7e7f3"/>
    <path d="M298.89,376.93c0-.11.21-.22.58-.32l.2-.05a.37.37,0,0,1,.23,0c.08.14.16-.28.25,0,.09.07.18,0,.28,0s.2.09.3,0c.11-.29.22.31.33-.05a.47.47,0,0,1,.35,0c.12.21.24,0,.37,0,.13.26.26.15.39,0,.14.36.27.3.41,0,.14,0,.28.13.43,0s.3-.09.45,0c.15-.24.3-.23.46,0,.16-.26.32-.15.48,0s.33-.23.49,0c.17,0,.34-.06.51,0s.34.23.52,0c.18-.07.35-.15.53,0,.18-.28.36-.16.54,0,.19,0,.37.15.56,0,.18.05.37-.12.56,0v1.79h0c-.19-.09-.38-.17-.56,0s-.37-.07-.56,0c-.18-.26-.36.08-.54,0s-.35-.15-.53,0a.59.59,0,0,1-.52,0c-.17.39-.34-.11-.51,0-.16-.17-.33,0-.49,0s-.32-.19-.48,0c-.16,0-.31.12-.46,0-.15.2-.3-.16-.45,0a1.23,1.23,0,0,1-.43,0c-.14-.31-.27-.05-.41,0s-.26.18-.39,0c-.13,0-.25-.16-.37,0s-.24-.45-.35,0c-.11.08-.22-.31-.33,0s-.2,0-.3,0l-.28,0c-.8-.14-1.26-.29-1.26-.46s.57-.36,1.54-.5c.1,0,.2-.23.3,0,.11,0,.22-.17.33,0,.11-.29.23-.06.35,0s.24.08.37,0,.26.08.39,0c.14.17.27.13.41,0,.14.17.28,0,.43,0,.15.26.3.08.45,0s.3,0,.46,0,.32-.06.48,0a.35.35,0,0,1,.49,0,1.1,1.1,0,0,1,.51,0c.17-.1.34,0,.52,0s.35.28.53,0c.18,0,.36.05.54,0a.89.89,0,0,0,.56,0c.18.28.37.11.56,0h0v1.84a.89.89,0,0,1-.56,0,2.62,2.62,0,0,1-.56,0c-.18.08-.36-.13-.54,0s-.35-.13-.53,0a.44.44,0,0,1-.52,0c-.17,0-.34-.26-.51,0-.16.05-.33.38-.49,0-.16.1-.32-.2-.48,0-.16-.29-.31,0-.46,0s-.3-.16-.45,0-.29-.08-.43,0-.27-.22-.41,0c-.13,0-.26,0-.39,0-.13.39-.25,0-.37,0s-.24.26-.35,0c-.11.3-.22,0-.33,0s-.2.13-.3,0c-.1.21-.19-.12-.28-.05-.09-.14-.17,0-.25,0a.17.17,0,0,1-.23,0l-.2-.05C299.1,377.15,298.89,377,298.89,376.93Z" transform="translate(-263.2 -360.57)" style="fill: #e7e7f3"/>
    <path d="M298.89,387.38c0-.11.21-.21.58-.31l.2-.05a.46.46,0,0,1,.23,0c.08.15.16-.27.25,0,.09.06.18,0,.28-.05s.2.1.3,0,.22.32.33,0a.47.47,0,0,1,.35,0c.12.22.24,0,.37,0,.13.26.26.15.39,0,.14.36.27.31.41,0,.14,0,.28.13.43,0a.86.86,0,0,1,.45,0c.15-.24.3-.23.46,0,.16-.26.32-.16.48,0s.33-.23.49,0a2.9,2.9,0,0,1,.51,0c.17.11.34.22.52,0,.18-.07.35-.16.53,0,.18-.27.36-.15.54,0,.19-.05.37.15.56,0,.18,0,.37-.12.56,0v1.78h0c-.19-.08-.38-.16-.56,0s-.37-.07-.56,0c-.18-.26-.36.08-.54,0s-.35-.15-.53,0a.59.59,0,0,1-.52,0c-.17.4-.34-.1-.51,0-.16-.16-.33,0-.49,0s-.32-.18-.48,0c-.16,0-.31.13-.46,0-.15.19-.3-.17-.45,0a1.53,1.53,0,0,1-.43,0c-.14-.31-.27-.05-.41,0s-.26.17-.39,0c-.13,0-.25-.17-.37,0s-.24-.45-.35,0c-.11.07-.22-.32-.33,0s-.2,0-.3,0l-.28-.05c-.8-.13-1.26-.29-1.26-.45s.57-.36,1.54-.5c.1,0,.2-.24.3-.05.11,0,.22-.16.33,0,.11-.28.23,0,.35,0s.24.08.37,0,.26.08.39,0c.14.18.27.13.41,0,.14.18.28,0,.43,0,.15.27.3.08.45,0s.3,0,.46,0,.32-.07.48,0a.34.34,0,0,1,.49,0c.17-.09.34,0,.51,0s.34,0,.52,0,.35.28.53,0c.18,0,.36,0,.54,0a1,1,0,0,0,.56,0c.18.29.37.11.56,0h0v1.84a.89.89,0,0,1-.56,0,2.1,2.1,0,0,1-.56,0c-.18.09-.36-.12-.54,0s-.35-.13-.53,0a.43.43,0,0,1-.52,0c-.17,0-.34-.26-.51,0-.16.06-.33.39-.49,0-.16.1-.32-.19-.48,0-.16-.29-.31,0-.46,0s-.3-.16-.45,0-.29-.08-.43,0-.27-.22-.41,0c-.13,0-.26,0-.39,0-.13.4-.25,0-.37,0s-.24.26-.35,0c-.11.3-.22,0-.33,0s-.2.12-.3-.05c-.1.22-.19-.11-.28,0-.09-.14-.17,0-.25,0a.18.18,0,0,1-.23-.05l-.2-.05C299.1,387.6,298.89,387.5,298.89,387.38Z" transform="translate(-263.2 -360.57)" style="fill: #e7e7f3"/>
    <path d="M298.89,397.83c0-.11.21-.21.58-.31l.2,0a.46.46,0,0,1,.23-.05c.08.15.16-.27.25,0,.09.06.18,0,.28-.05s.2.1.3,0,.22.32.33,0a.43.43,0,0,1,.35,0c.12.22.24,0,.37,0,.13.26.26.14.39,0,.14.36.27.31.41,0,.14,0,.28.13.43,0a.86.86,0,0,1,.45,0c.15-.24.3-.23.46,0,.16-.26.32-.16.48,0s.33-.23.49,0a2.9,2.9,0,0,1,.51,0c.17.1.34.22.52,0,.18-.06.35-.15.53,0,.18-.27.36-.15.54,0,.19-.05.37.15.56,0,.18,0,.37-.12.56,0v1.78h0c-.19-.08-.38-.16-.56,0s-.37-.07-.56,0c-.18-.25-.36.09-.54,0s-.35-.15-.53,0a.63.63,0,0,1-.52,0c-.17.4-.34-.1-.51,0-.16-.16-.33,0-.49,0s-.32-.18-.48,0c-.16,0-.31.13-.46,0-.15.19-.3-.17-.45,0a1.53,1.53,0,0,1-.43,0c-.14-.31-.27,0-.41,0s-.26.17-.39,0c-.13,0-.25-.16-.37,0s-.24-.45-.35,0c-.11.07-.22-.32-.33,0s-.2,0-.3,0l-.28-.05c-.8-.13-1.26-.29-1.26-.45s.57-.36,1.54-.5c.1,0,.2-.24.3-.05.11,0,.22-.16.33,0,.11-.28.23-.05.35,0s.24.07.37,0,.26.08.39,0c.14.18.27.13.41,0,.14.17.28,0,.43,0,.15.27.3.08.45,0s.3,0,.46,0,.32-.07.48,0a.34.34,0,0,1,.49,0c.17-.09.34,0,.51,0s.34,0,.52,0,.35.28.53,0c.18,0,.36,0,.54,0a1,1,0,0,0,.56,0c.18.29.37.11.56,0h0v1.84a.89.89,0,0,1-.56,0,2.1,2.1,0,0,1-.56,0c-.18.09-.36-.12-.54,0s-.35-.13-.53,0a.43.43,0,0,1-.52,0c-.17,0-.34-.26-.51,0-.16.06-.33.38-.49,0-.16.1-.32-.19-.48,0-.16-.29-.31,0-.46,0s-.3-.16-.45,0-.29-.08-.43,0-.27-.22-.41,0c-.13,0-.26,0-.39,0-.13.4-.25,0-.37,0s-.24.27-.35,0c-.11.3-.22,0-.33,0s-.2.12-.3,0c-.1.21-.19-.12-.28,0-.09-.14-.17,0-.25-.05a.16.16,0,0,1-.23,0l-.2-.05C299.1,398.05,298.89,397.94,298.89,397.83Z" transform="translate(-263.2 -360.57)" style="fill: #e7e7f3"/>
    <path d="M296.46,371.88a9.58,9.58,0,0,1,.32,2.81c0,.3,0,.63.05,1a7.89,7.89,0,0,1,0,1.11c-.14.39.28.8.05,1.23a5.2,5.2,0,0,0,0,1.36,9.27,9.27,0,0,0,.05,1.48c.28.51-.32,1,0,1.59a10.77,10.77,0,0,1,0,1.71,4.38,4.38,0,0,0,0,1.8,2.85,2.85,0,0,0,0,1.91,2.06,2.06,0,0,0,0,2,9.76,9.76,0,0,0,0,2.09,17.57,17.57,0,0,1,0,2.18,3.79,3.79,0,0,1,0,2.26,4.6,4.6,0,0,1,0,2.33c-.14.79.23,1.6,0,2.41v.69h0v0a.78.78,0,0,1,0,.14h.12l0,0h.05l.31,0,.63.05a4.3,4.3,0,0,0,1.28-.14,11.22,11.22,0,0,1,2.59,0,5.52,5.52,0,0,1,2.65,0,22,22,0,0,0,2.69,0c.45,0,.91,0,1.37,0l.45,0a.24.24,0,0,1,.11,0h0a.12.12,0,0,0,.05-.08.14.14,0,0,0,0-.07h0v-.29a6.42,6.42,0,0,0-.09-1.31,22,22,0,0,1,0-2.69,13.81,13.81,0,0,0,0-2.65,18.67,18.67,0,0,0,0-2.59,14.35,14.35,0,0,1,0-2.54c-.4-.83.1-1.66,0-2.47a16.19,16.19,0,0,0,0-2.41,22.69,22.69,0,0,0,0-2.33,14.18,14.18,0,0,1,0-2.26c-.2-.74.17-1.46,0-2.18s0-1.41,0-2.09a4.11,4.11,0,0,0,0-2,5,5,0,0,0,0-.67l0-.34v-.22c0-.06,0-.08,0-.18a.28.28,0,0,0,0-.09,1.8,1.8,0,0,0-.31-.07,2.76,2.76,0,0,0-.76.05c-.59,0-1.16-.45-1.71,0-.55.07-1.08-.32-1.59,0s-1,0-1.48-.05l-1.36,0c-3.9-.13-6.13-.29-6.13-.46s2.76-.35,7.49-.5a3.67,3.67,0,0,1,1.48,0,7,7,0,0,1,1.59,0c.55-.29,1.12,0,1.71,0l.76,0c.4,0,.81,0,1.25,0,.05.14.1.27.16.4a5.61,5.61,0,0,1,.34.92V373l0,.34a3,3,0,0,0,0,.67,4,4,0,0,0,0,2,8.62,8.62,0,0,0,0,2.09,4.35,4.35,0,0,0,0,2.18c.1.74,0,1.49,0,2.26s.07,1.54,0,2.33a7,7,0,0,1,0,2.41,22.57,22.57,0,0,1,0,2.47c.1.84,0,1.68,0,2.54a9.77,9.77,0,0,0,0,2.59c0,.87,0,1.76,0,2.65a20.13,20.13,0,0,0,0,2.69,3.93,3.93,0,0,0-.16,1.31l.06,1,.09,1.27h-.18c-.42,0-.85,0-1.29,0h-.91l-1.37-.05c-.9,0-1.8,0-2.69,0s-1.77-.13-2.65,0-1.73-.13-2.59,0c-.43,0-.85.07-1.28.08l-.63,0-.31,0-.28,0-.28,0c-.47,0-.91,0-1.33-.05,0-.55.06-1.07.07-1.57v-.34a1.49,1.49,0,0,0,0-.21,1.65,1.65,0,0,0-.09-.43c-.05-.81-.38-1.62,0-2.41-.1-.79.2-1.57,0-2.33a6.14,6.14,0,0,0,0-2.26,8.39,8.39,0,0,0,0-2.18,16.12,16.12,0,0,1,0-2.09c-.17-.68.22-1.35,0-2,0-.65,0-1.29,0-1.91-.4-.62,0-1.22,0-1.8s-.26-1.16,0-1.71c-.3-.54,0-1.08,0-1.59s-.13-1,0-1.48c-.21-.47.12-.92.05-1.36a4.66,4.66,0,0,0,0-1.23,3.13,3.13,0,0,1,.05-1.11c0-.35,0-.68,0-1A9.85,9.85,0,0,1,296.46,371.88Z" transform="translate(-263.2 -360.57)" style="fill: #e7e7f3"/>
    <path d="M303.5,414.05q0,.07-.3.18c-.09,0-.21,0-.35.1l-.46.15c-.12,0-.24.09-.37.13l-.19.1-.21.08c-.2-.08-.19.35-.43.22a.75.75,0,0,0-.45.28c-.12.14-.37.11-.45.35s-.12.17-.25.17-.24,0-.2.24a1,1,0,0,1-.19.26l-.23.23a.28.28,0,0,0-.27.21c0,.12-.07.24-.11.35-.34.06-.39.34-.32.64-.22,0-.35.11-.38.24a.53.53,0,0,0,.13.45c0,.12-.1.24-.15.36a.65.65,0,0,0,0,.19.51.51,0,0,0,0,.21c0,.13,0,.26,0,.4a1.39,1.39,0,0,1,0,.4.67.67,0,0,1,.19.4.49.49,0,0,1,0,.2.74.74,0,0,1-.08.22c.28.24.25.5.2.82a.53.53,0,0,0,.18.39c.1.12.21.22.17.41a.93.93,0,0,1,.05.1l.06.09.13.18c.08.12.18.24.25.37l.08.23.12.2a.69.69,0,0,0,.18.16.57.57,0,0,0,.25.07l.4.24a1.29,1.29,0,0,1,.34.32c.41-.07.6.17.85.42a2.86,2.86,0,0,1,.44.2.71.71,0,0,0,.48.07,2,2,0,0,0,.49,0,1,1,0,0,1,.48.05,2.23,2.23,0,0,0,.5.07,1,1,0,0,0,.48-.16.71.71,0,0,1,.46-.15,1,1,0,0,0,.46-.12.33.33,0,0,0,.26,0,.86.86,0,0,0,.2-.13l.1-.08a.24.24,0,0,1,.08-.09.45.45,0,0,1,.21-.12l.41-.23a.66.66,0,0,0,.33-.33l.14-.18.14-.18.16-.16a1.24,1.24,0,0,1,.18-.14.35.35,0,0,1,.16-.43c.13-.09.31-.16.33-.32a.56.56,0,0,0,.24-.37,1.44,1.44,0,0,1,.11-.42,1,1,0,0,1,.15-.4.49.49,0,0,0,.06-.42,1.52,1.52,0,0,0,0-.21,1.49,1.49,0,0,1,0-.21.63.63,0,0,1,.07-.4.4.4,0,0,1,0-.41.44.44,0,0,0,0-.39l0-.19c0-.07,0-.13-.05-.19s-.05-.25-.07-.38a.34.34,0,0,0,0-.4c-.06-.11-.19-.19-.25-.3s-.39-.32-.32-.63c-.06-.1-.1-.22-.15-.32a.38.38,0,0,0-.24-.24c-.09-.07-.08-.22-.11-.35s-.1-.22-.31-.14-.12-.17-.17-.28-.12-.19-.28-.13-.3-.24-.45-.35-.3-.19-.45-.28a8.3,8.3,0,0,0-1.66-.68c-.42-.11-.65-.2-.65-.28s.07-.09.22-.13l.27-.05.17,0h.2a5.14,5.14,0,0,1,2.4.58c.19.1.51,0,.59.33a1.45,1.45,0,0,0,.33.16.53.53,0,0,1,.26.27.37.37,0,0,1,.38.17,3.07,3.07,0,0,0,.2.36,1.61,1.61,0,0,1,.24.34,1.25,1.25,0,0,0,.3.31c.29.16.25.53.47.76a.88.88,0,0,0,.09.46,1.08,1.08,0,0,0,.3.39.81.81,0,0,0,.08.49c0,.07.07.15.11.23a.84.84,0,0,1,.07.24.65.65,0,0,0-.06.52c0,.16.12.33.18.5a1.19,1.19,0,0,1,0,.53,2.48,2.48,0,0,0,0,.27,1.24,1.24,0,0,0,0,.27,7.14,7.14,0,0,1-.22,1.1,2,2,0,0,1-.09.58,1.22,1.22,0,0,1-.33.49,1.74,1.74,0,0,1-.26.53,5.46,5.46,0,0,1-.36.48,1.17,1.17,0,0,1-.15.27l-.21.22-.22.21-.23.21a1.42,1.42,0,0,1-.52.34.84.84,0,0,0-.46.43,9.32,9.32,0,0,1-1.13.59l-.63.17a5,5,0,0,0-.62.2,1,1,0,0,0-.67-.05,6.43,6.43,0,0,0-.65.18,2.92,2.92,0,0,1-.66,0,4.72,4.72,0,0,1-.65-.15,4.53,4.53,0,0,1-.64-.13,6.44,6.44,0,0,1-.61-.24.64.64,0,0,1-.3-.11,2.61,2.61,0,0,1-.28-.17,2,2,0,0,0-.55-.3,1.13,1.13,0,0,1-.51-.37,2,2,0,0,0-.47-.4,2.53,2.53,0,0,1-.27-.18,1.45,1.45,0,0,1-.22-.21,1.16,1.16,0,0,1-.2-.24,1.26,1.26,0,0,1-.12-.29,2.07,2.07,0,0,1-.26-.54.94.94,0,0,0-.14-.26l-.1-.11-.12-.1c-.11-.16-.29-.29-.4-.46a.57.57,0,0,1,0-.61,1.15,1.15,0,0,1-.11-.55.91.91,0,0,0-.11-.54.65.65,0,0,0,.09-.29.6.6,0,0,0,0-.26,2.41,2.41,0,0,1-.11-.52c0-.18.09-.35.11-.52a1.25,1.25,0,0,0,0-.51.76.76,0,0,1,0-.26.92.92,0,0,1,.09-.23,2.19,2.19,0,0,0,.18-.46.57.57,0,0,1,.18-.44c.1-.13.23-.24.2-.42a4.84,4.84,0,0,1,.47-.76.32.32,0,0,1,.14-.43c.13-.08.29-.13.4-.21s.15-.23.22-.35a.33.33,0,0,1,.36-.19.32.32,0,0,1,.2-.34c.13-.05.27-.05.39-.09s.32-.36.59-.33a.24.24,0,0,1,.27-.18c.11,0,.23,0,.3-.07.23,0,.35-.14.53-.16a.64.64,0,0,1,.24-.11.7.7,0,0,1,.25,0,3.8,3.8,0,0,1,.43-.05h.54l.39,0C303.4,413.94,303.5,414,303.5,414.05Z" transform="translate(-263.2 -360.57)" style="fill: #e7e7f3"/>
    <path d="M309,367.69a37.77,37.77,0,0,1,1.87,5.2l.59,1.82c.22.65.46,1.34.66,2.08s.71,1.43.74,2.31a21.26,21.26,0,0,0,.8,2.55c.31.87.45,1.84.86,2.77s.28,2.05.93,3c.38,1,.68,2.08,1,3.19a16.28,16.28,0,0,0,1,3.39,10.4,10.4,0,0,0,1.1,3.57,7.47,7.47,0,0,0,1.14,3.76,38.26,38.26,0,0,0,1.2,3.93c.42,1.33.89,2.68,1.24,4.09a14.79,14.79,0,0,1,1.28,4.24A17.57,17.57,0,0,1,324.8,418c.31,1.52,1.11,2.93,1.37,4.52.43,1.53,1,3.06,1.39,4.65.15.65.3,1.31.47,2l.13.49.07.25.07.23a.9.9,0,0,0,.11.24.69.69,0,0,0,.22-.16h0l0,0,.15-.05.3-.1.6-.2c.4-.13.8-.27,1.21-.39.81-.25,1.63-.48,2.47-.66a21.68,21.68,0,0,1,5-1.48c1.66-.54,3.41-.85,5.07-1.5.85-.24,1.7-.52,2.55-.79l1.29-.4.3-.08h.16v-.15l-.08-.3c-.11-.44-.22-.87-.35-1.3-.24-.86-.52-1.71-.84-2.54-.68-1.65-.94-3.41-1.5-5.07-.25-1.75-1.07-3.31-1.47-5s-.83-3.31-1.44-4.88-1-3.17-1.4-4.77c-.84-1.46-.82-3.16-1.36-4.66-.29-1.58-.93-3-1.32-4.53s-.7-3-1.28-4.4c-.4-1.45-1-2.82-1.24-4.26-.6-1.34-.66-2.8-1.19-4.1s-.8-2.65-1.14-3.95a15.61,15.61,0,0,0-1.08-3.77,26.41,26.41,0,0,1-1-3.6,27.53,27.53,0,0,0-1-3.41,7,7,0,0,1-.24-1.1s0-.05,0-.06v-.11c0-.06,0-.11,0-.17a2,2,0,0,0-.06-.35,1.21,1.21,0,0,0-.33.12.56.56,0,0,0-.15.1l-.07.06s0,0,0,0l-.06,0c-1,.38-2.12.3-3,.85a10.42,10.42,0,0,1-2.79.78l-2.58.72c-3.69,1-6.59,1.8-8.58,2.31a15.4,15.4,0,0,1-3.09.66,20.42,20.42,0,0,1,3.63-1.35c2.39-.79,5.9-1.91,10.33-3.3a14.92,14.92,0,0,1,2.77-.86,26.12,26.12,0,0,1,3-.92l.06,0,.1-.05.21-.09.44-.17c.31-.12.62-.22.93-.32.09.3.18.6.26.91l.12.45.06.23,0,.11v.08c.08.36.16.72.27,1.09.34,1.09.58,2.25,1,3.39s.62,2.38,1.09,3.57a15.81,15.81,0,0,0,1.15,3.76,35.28,35.28,0,0,0,1.2,3.93,16.29,16.29,0,0,0,1.24,4.09c.5,1.36.79,2.82,1.28,4.24s.93,2.89,1.32,4.38a26.38,26.38,0,0,1,1.37,4.53c.53,1.5.93,3.07,1.39,4.65s.93,3.16,1.43,4.76a36.3,36.3,0,0,0,1.46,4.88c.52,1.63.93,3.31,1.48,5s.93,3.39,1.51,5.07a14.45,14.45,0,0,0,.61,2.6c.14.43.29.85.45,1.27l.12.34.2.59c.13.41.27.82.41,1.22h0l-2.16.68-1.29.39-2.58.71c-1.7.53-3.39,1-5.07,1.49s-3.37.87-5,1.47a23.82,23.82,0,0,1-2.46.72l-1.23.32-.6.18-.3.1-.39.14-1.67.54c-.2-.62-.39-1.24-.58-1.85l-.16-.51-.14-.48c-.19-.65-.35-1.3-.49-2a31.27,31.27,0,0,0-1.36-4.66,16,16,0,0,1-1.32-4.53c-.54-1.46-.69-3-1.28-4.4a23.79,23.79,0,0,0-1.24-4.26,33,33,0,0,0-1.19-4.1c-.53-1.3-.71-2.68-1.14-3.95s-.54-2.6-1.08-3.77c-.33-1.24-.74-2.42-1-3.6-.73-1.05-.68-2.3-1-3.41a15.47,15.47,0,0,1-.91-3.21,8.73,8.73,0,0,1-.85-3c-.2-1-.68-1.86-.78-2.8a16.29,16.29,0,0,1-.72-2.57,20.9,20.9,0,0,0-.64-2.34,11.83,11.83,0,0,1-.58-2.1c-.18-.66-.34-1.28-.5-1.85A35,35,0,0,1,309,367.69Z" transform="translate(-263.2 -360.57)" style="fill: #e7e7f3"/>
    <path d="M327.34,374.73c0,.11,0,.24-.19.39l-.08.07s-.05.08-.09.08,0,.29-.11.08c-.06-.05-.09,0-.12.08s-.12-.06-.14.09-.19-.28-.14.08c0,.09-.1.09-.16.09-.12-.2-.12,0-.17.08-.13-.23-.16-.1-.17.09-.17-.32-.22-.25-.19.09-.06,0-.17-.08-.2.09s-.11.13-.21.09c0,.25-.08.27-.21.09,0,.27-.11.19-.22.09s-.09.26-.23.09c-.09,0-.15.1-.24.08s-.23-.16-.25.09c-.06.09-.12.2-.25.09,0,.29-.13.19-.26.08-.07.07-.22-.09-.26.09-.1,0-.14.16-.27.08s-.23-.11-.27.07-.2,0-.27.08c-.16-.22-.15.13-.26.07s-.21-.1-.26.06-.14.14-.25.06c0,.41-.19-.05-.25.06-.12-.14-.15.07-.24.05s-.2-.13-.23,0c-.09,0-.12.17-.23.05,0,.2-.19-.12-.23,0s-.13.06-.21,0c-.16-.27-.15,0-.21,0s-.07.21-.19,0c-.07,0-.17-.11-.19,0s-.24-.4-.18,0c0,.09-.19-.27-.17,0s-.1,0-.15,0h-.15c-.42,0-.69-.1-.73-.26s.17-.42.59-.7c0,0,0-.24.13-.08.06,0,.06-.19.15-.08,0-.3.1-.09.16-.09s.14,0,.16-.09.15.05.18-.09c.12.15.17.09.19-.08.12.14.12-.08.2-.09.14.23.16,0,.2-.09s.16,0,.22-.09.13-.11.22-.09c0-.14.11-.21.23-.09.06-.11.16-.06.24-.09s.17,0,.25-.09.25.23.25-.08c.07-.06.18,0,.26-.09a.24.24,0,0,0,.26-.08c.17.25.21.05.27-.08s.17-.09.27-.08a.59.59,0,0,1,.26-.07c.07-.11.21.07.27-.07s.21.08.26-.06.13-.18.25-.06.24.2.25-.06c.06-.08,0-.42.24,0,0-.12.21.14.23-.05.16.26.16,0,.23,0s.19.11.22,0,.16,0,.22,0,.19.17.21,0c.07,0,.11-.06.19,0,0-.4.12,0,.19,0s0-.29.18,0c0-.3.09-.07.17,0s.06-.15.15,0c0-.21.13.09.15,0,.08.13.09,0,.13,0s.07-.05.13,0H327C327.18,374.56,327.31,374.63,327.34,374.73Z" transform="translate(-263.2 -360.57)" style="fill: #e7e7f3"/>
    <path d="M330.31,384.76c0,.1,0,.23-.18.38l-.09.08s-.05.07-.09.07,0,.29-.11.08c-.06-.05-.09,0-.12.08s-.12-.06-.13.09-.2-.27-.15.08c0,.09-.09.09-.16.09-.11-.19-.11,0-.16.09-.14-.24-.17-.11-.18.08-.17-.32-.22-.25-.19.09-.06,0-.17-.08-.2.09s-.11.13-.2.09c0,.26-.08.27-.22.09,0,.27-.1.2-.22.09s-.09.27-.23.09c-.09,0-.14.1-.24.09s-.23-.17-.24.09c-.07.08-.13.19-.26.08,0,.29-.13.2-.25.09-.08.07-.22-.09-.27.08-.1,0-.14.17-.27.08s-.22-.1-.26.08-.2,0-.27.07c-.16-.22-.15.14-.26.07s-.22-.09-.26.07-.14.14-.25.06c0,.4-.2,0-.25.05-.13-.14-.15.07-.24.05s-.21-.13-.24.05c-.08,0-.11.17-.23,0,0,.21-.19-.11-.22,0a.41.41,0,0,1-.22,0c-.15-.28-.14,0-.2,0s-.08.2-.2,0c-.07,0-.16-.12-.19,0s-.24-.4-.17,0c0,.09-.2-.27-.17,0s-.11,0-.16,0h-.15c-.42,0-.68-.1-.73-.26s.17-.42.6-.7c0,0,0-.25.13-.08.05,0,.06-.19.14-.09,0-.29.1-.08.16-.08s.14,0,.17-.09.15,0,.18-.09c.11.15.16.09.18-.09.12.15.13-.07.2-.09.15.24.16,0,.21-.09s.16,0,.21-.09.14-.11.23-.08c0-.15.1-.22.23-.09.05-.11.15-.07.23-.09s.17,0,.25-.09.25.22.25-.09c.08-.06.19,0,.26-.08s.2,0,.26-.08c.17.25.21.05.27-.08s.17-.1.27-.08a.5.5,0,0,1,.27-.08c.06-.1.21.07.26-.07s.21.08.26-.06.13-.17.25-.06.24.2.25-.06c.06-.07.05-.41.24-.05.05-.12.21.14.24,0,.15.26.15,0,.22-.05s.19.11.23,0,.16,0,.21,0,.2.17.21,0c.07,0,.12-.06.19,0-.05-.4.12,0,.19,0s0-.29.18,0c0-.31.09-.08.17,0s.06-.15.16,0c0-.21.12.09.14,0,.08.12.09,0,.14,0s.06-.06.12,0l.11,0C330.15,384.58,330.28,384.65,330.31,384.76Z" transform="translate(-263.2 -360.57)" style="fill: #e7e7f3"/>
    <path d="M333.29,394.78c0,.1,0,.24-.19.38l-.08.08s-.06.08-.1.07,0,.29-.11.09c-.06,0-.09,0-.12.08s-.12-.06-.13.08c0,.29-.2-.27-.15.09,0,.08-.09.08-.15.08-.12-.19-.12,0-.17.09-.14-.24-.17-.11-.18.09-.17-.33-.22-.26-.19.09-.06,0-.17-.09-.19.09s-.12.12-.21.09c0,.25-.08.26-.21.08,0,.27-.11.2-.23.09s-.09.27-.23.09c-.08,0-.14.11-.24.09s-.23-.17-.24.09c-.07.08-.13.19-.25.08,0,.29-.13.2-.26.09-.08.07-.22-.09-.27.08-.1,0-.14.17-.26.08s-.23-.1-.27.08-.2,0-.27.08c-.16-.23-.15.13-.26.06s-.22-.09-.26.07-.14.14-.25.06c0,.4-.19-.05-.25.05-.13-.13-.15.08-.24.06s-.21-.13-.24,0c-.08,0-.11.17-.23,0,0,.21-.19-.11-.22,0a.37.37,0,0,1-.21,0c-.16-.27-.15,0-.21,0s-.08.21-.2,0c-.06,0-.16-.12-.18,0s-.25-.4-.18,0c0,.09-.2-.27-.17,0s-.11,0-.16,0h-.14c-.43,0-.69-.1-.74-.26s.17-.42.6-.7c0,0,0-.25.13-.08.05,0,.06-.19.15-.08,0-.3.09-.09.15-.09s.14,0,.17-.09.15,0,.18-.09c.11.15.16.09.19-.08.11.14.12-.08.19-.09.15.23.17,0,.21-.09s.16,0,.21-.09.14-.11.23-.09c0-.15.1-.21.23-.09.05-.11.15-.07.24-.09s.17,0,.24-.09.25.22.25-.08c.08-.06.19,0,.26-.09s.2,0,.26-.08c.17.25.21.05.27-.08s.17-.1.27-.08a.65.65,0,0,1,.27-.08c.06-.1.21.07.26-.06s.21.07.26-.07.13-.17.25-.06.24.21.25-.05c.06-.08.05-.42.24-.06,0-.11.21.14.24,0,.16.26.15,0,.23,0s.18.1.22,0,.16,0,.21,0,.2.17.21,0c.07,0,.12-.06.2,0-.06-.4.12,0,.18,0s0-.29.18,0c0-.31.1-.07.17,0s.06-.15.16,0c0-.22.12.08.14,0,.09.12.09,0,.14,0s.06,0,.12,0l.11,0C333.13,394.6,333.25,394.67,333.29,394.78Z" transform="translate(-263.2 -360.57)" style="fill: #e7e7f3"/>
    <path d="M314.75,373.21a10.08,10.08,0,0,1,1.1,2.62l.33.92c.12.33.26.67.36,1.05s.49.7.39,1.18a5.59,5.59,0,0,0,.43,1.29,9.65,9.65,0,0,0,.46,1.41c.42.41,0,1.1.5,1.52a10.35,10.35,0,0,1,.52,1.63,4.39,4.39,0,0,0,.55,1.72,2.82,2.82,0,0,0,.57,1.83,2.08,2.08,0,0,0,.61,1.91,10,10,0,0,0,.62,2,17.52,17.52,0,0,1,.65,2.09,4,4,0,0,1,.67,2.16,4.81,4.81,0,0,1,.68,2.24c.09.8.67,1.47.71,2.31,0,.13.07.26.11.39l.06.2,0,0,.06.13a.35.35,0,0,1,.14,0h.13l.31-.06c.21,0,.42-.08.63-.13a4.34,4.34,0,0,0,1.18-.49,10.69,10.69,0,0,1,2.49-.75,5.53,5.53,0,0,1,2.54-.76,24,24,0,0,0,2.59-.77c.44-.11.87-.27,1.3-.42l.32-.11h0a.32.32,0,0,1,.13,0h0l0-.09v-.08c0-.1-.05-.22-.08-.32a6.68,6.68,0,0,0-.48-1.29,21.86,21.86,0,0,1-.76-2.59,14.31,14.31,0,0,0-.75-2.54,18.93,18.93,0,0,0-.73-2.5,15.1,15.1,0,0,1-.71-2.44c-.61-.69-.37-1.62-.68-2.38a17.7,17.7,0,0,0-.67-2.32,22.53,22.53,0,0,0-.64-2.25,13.14,13.14,0,0,1-.62-2.18c-.4-.65-.26-1.45-.6-2.1s-.41-1.35-.57-2a4,4,0,0,0-.54-1.93,3.5,3.5,0,0,0-.14-.46c-.06-.14-.11-.28-.17-.43s-.06-.13,0-.37v0c-.1,0-.2,0-.34,0l-.34.09a2.71,2.71,0,0,0-.39.17c-.55.21-1.24-.1-1.65.45-.51.23-1.13,0-1.54.41s-1,.26-1.44.39l-1.32.34c-3.78,1-6,1.47-6,1.31s2.55-1.13,7.06-2.62c.45-.14.86-.49,1.41-.46a7.12,7.12,0,0,1,1.52-.49c.45-.43,1.06-.37,1.62-.52l.42-.12.5-.13a14.07,14.07,0,0,0,1.39-.46l0,.08a7.58,7.58,0,0,1,.47,1.48c0,.07,0,.1,0,.14l0,.12a1.89,1.89,0,0,0,.05.23,3.61,3.61,0,0,0,.17.46,4,4,0,0,0,.6,1.91,8.82,8.82,0,0,0,.63,2,4.36,4.36,0,0,0,.64,2.08c.31.68.39,1.45.67,2.16s.51,1.47.69,2.24a7,7,0,0,1,.7,2.31,20.94,20.94,0,0,1,.72,2.37c.34.77.47,1.62.74,2.43a9.17,9.17,0,0,0,.75,2.49c.28.83.45,1.7.76,2.54a21.92,21.92,0,0,0,.77,2.59,3.81,3.81,0,0,0,.25,1.35l.8,2.16h0L337,400l-.64.2-.33.1-1.33.34c-.86.28-1.73.52-2.59.76s-1.74.38-2.54.74-1.71.37-2.5.73c-.4.16-.8.32-1.2.44-.2.06-.41.12-.61.16l-.31.06-.08,0-.14,0-.28.06c-.49.15-1,.26-1.41.36-.12-.52-.23-1-.36-1.46a3.58,3.58,0,0,0-.11-.35l-.07-.19a2.64,2.64,0,0,0-.2-.37c-.29-.77-.83-1.45-.67-2.32-.32-.73-.26-1.56-.64-2.25a6.22,6.22,0,0,0-.62-2.18,9.2,9.2,0,0,0-.59-2.1,14.86,14.86,0,0,1-.57-2c-.36-.61-.18-1.36-.54-1.93-.15-.64-.39-1.23-.51-1.84-.56-.48-.35-1.18-.48-1.75s-.58-1-.45-1.64c-.45-.45-.35-1-.42-1.55s-.4-.93-.38-1.43c-.34-.4-.15-.93-.34-1.32a5.27,5.27,0,0,0-.31-1.2,3.17,3.17,0,0,1-.27-1.08c-.09-.34-.16-.66-.23-1A9.22,9.22,0,0,1,314.75,373.21Z" transform="translate(-263.2 -360.57)" style="fill: #e7e7f3"/>
    <path d="M333.48,411.66c0,.06-.06.14-.23.26s-.19.11-.31.19-.25.18-.4.28l-.31.24-.16.14a1.24,1.24,0,0,1-.18.14c-.21,0-.08.39-.35.33a.73.73,0,0,0-.35.4c-.08.17-.33.21-.33.46s-.07.19-.19.23-.22.11-.12.29a1.54,1.54,0,0,1-.11.3l-.16.29a.28.28,0,0,0-.2.28c0,.12,0,.25,0,.36-.31.16-.28.44-.13.71-.19.09-.3.21-.29.34a.56.56,0,0,0,.25.4c0,.12,0,.25,0,.38a.67.67,0,0,0,0,.2.51.51,0,0,0,.09.18c0,.13.07.26.11.39a1.23,1.23,0,0,1,.07.39.67.67,0,0,1,.3.33.47.47,0,0,1,0,.21.92.92,0,0,1,0,.23c.34.14.39.41.43.73,0,.15.16.24.28.32s.26.16.28.34l.07.08.09.07.17.14c.12.1.24.18.35.28s.09.14.14.2a1.37,1.37,0,0,0,.18.16.51.51,0,0,0,.21.1.57.57,0,0,0,.26,0l.45.11a1.31,1.31,0,0,1,.42.22c.37-.18.62,0,.93.16a2.63,2.63,0,0,1,.48.06.68.68,0,0,0,.48-.07,1.65,1.65,0,0,0,.48-.1,1,1,0,0,1,.48-.08,4,4,0,0,0,.5-.08.91.91,0,0,0,.41-.29.69.69,0,0,1,.4-.27,1.08,1.08,0,0,0,.41-.25.34.34,0,0,0,.25-.08.65.65,0,0,0,.15-.18l.07-.11.06-.1a.44.44,0,0,1,.16-.17,3.51,3.51,0,0,1,.33-.34.64.64,0,0,0,.22-.41l.09-.21c0-.08.05-.15.08-.22l.11-.19.13-.2a.33.33,0,0,1,0-.45c.09-.12.25-.24.22-.4a.61.61,0,0,0,.12-.42,1.63,1.63,0,0,1,0-.44.91.91,0,0,1,0-.43.46.46,0,0,0-.07-.42.69.69,0,0,0,0-.2,1.67,1.67,0,0,0-.08-.2.7.7,0,0,1,0-.41.36.36,0,0,1-.14-.37.43.43,0,0,0-.14-.38l-.08-.17-.1-.17c-.07-.11-.12-.23-.18-.34a.33.33,0,0,0-.11-.39c-.09-.08-.24-.12-.33-.21s-.45-.2-.48-.52a2.85,2.85,0,0,1-.23-.26.39.39,0,0,0-.3-.16c-.11,0-.14-.19-.21-.31s-.15-.18-.34,0c-.11,0-.16-.13-.24-.22a.21.21,0,0,0-.3-.05c-.26.17-.36-.14-.54-.2s-.34-.09-.5-.14a8.34,8.34,0,0,0-1.79-.18c-.43,0-.68,0-.71-.09s0-.1.18-.18l.24-.13.16-.07.2,0a5,5,0,0,1,2.46-.13c.21,0,.5-.12.66.15a2.08,2.08,0,0,0,.36.06.52.52,0,0,1,.33.18.37.37,0,0,1,.41.06,2.76,2.76,0,0,0,.3.29,1.54,1.54,0,0,1,.32.25,1,1,0,0,0,.38.21c.32.08.38.45.66.6a1,1,0,0,0,.22.42,1.38,1.38,0,0,0,.4.29.74.74,0,0,0,.22.44l.17.19a1.07,1.07,0,0,1,.13.21.67.67,0,0,0,.09.51,4.07,4.07,0,0,0,.32.44,1.27,1.27,0,0,1,.16.51c0,.08,0,.17,0,.26a1.31,1.31,0,0,0,.06.27,8,8,0,0,1,.1,1.11,2.32,2.32,0,0,1,.08.58,1.31,1.31,0,0,1-.18.57,1.91,1.91,0,0,1-.1.58,4.63,4.63,0,0,1-.21.56,1.32,1.32,0,0,1-.07.3,2.44,2.44,0,0,1-.14.28l-.15.26-.16.27a1.38,1.38,0,0,1-.4.47.88.88,0,0,0-.32.55,9.62,9.62,0,0,1-.92.88c-.18.12-.36.24-.55.35a4.61,4.61,0,0,0-.54.36,1.06,1.06,0,0,0-.65.14c-.2.1-.38.24-.57.36a2.5,2.5,0,0,1-.64.2,566.91,566.91,0,0,0-1.31.1,4.62,4.62,0,0,1-.65-.05.69.69,0,0,1-.32,0l-.32-.08a1.87,1.87,0,0,0-.62-.14,1.13,1.13,0,0,1-.59-.2,2.09,2.09,0,0,0-.57-.26l-.3-.09-.28-.14a2.2,2.2,0,0,1-.25-.17,1.16,1.16,0,0,1-.2-.24,1.9,1.9,0,0,1-.4-.45,1,1,0,0,0-.21-.21.57.57,0,0,0-.13-.08l-.14-.06c-.15-.12-.36-.2-.52-.33a.59.59,0,0,1-.2-.57,1.2,1.2,0,0,1-.26-.5.94.94,0,0,0-.26-.49.48.48,0,0,0,0-.29,1.06,1.06,0,0,0-.09-.25,2,2,0,0,1-.26-.47c0-.18,0-.36,0-.53a1.23,1.23,0,0,0-.13-.49.57.57,0,0,1-.08-.25,1.07,1.07,0,0,1,0-.25,1.63,1.63,0,0,0,0-.49.56.56,0,0,1,.06-.47c.05-.16.14-.29.07-.46a3.88,3.88,0,0,1,.23-.86.33.33,0,0,1,0-.46c.1-.11.25-.2.33-.31a1,1,0,0,0,.11-.4.31.31,0,0,1,.29-.28.31.31,0,0,1,.1-.39,3.9,3.9,0,0,1,.35-.19c.2-.14.2-.44.47-.49,0-.15.09-.21.2-.25s.22-.05.27-.14c.23,0,.3-.24.47-.32a.61.61,0,0,1,.19-.17.54.54,0,0,1,.25-.06l.39-.18.52-.16a2.24,2.24,0,0,1,.38-.06C333.35,411.59,333.47,411.61,333.48,411.66Z" transform="translate(-263.2 -360.57)" style="fill: #e7e7f3"/>
  </g>
</svg>
