<svg xmlns="http://www.w3.org/2000/svg" viewBox="0 0 600 591.16">
  <g id="Object">
    <g>
      <g>
        <path d="M860.84,551.37a283.7,283.7,0,0,0-3.11-34.09l-59.38-9.84-20.13-56.18,39.57-45.36A299.48,299.48,0,0,0,775.37,351l-53.84,27-49.36-33.57,5.33-60a297.13,297.13,0,0,0-64.59-19l-28,53.43-59.7,1.4L494.58,268.3a298.52,298.52,0,0,0-65.46,23.13l8.79,59.63-47.44,36.29-55.29-23.86a297.78,297.78,0,0,0-39.28,57.15l42.07,43-17,57.21L262.26,534.1a303.45,303.45,0,0,0-1.13,36.22,323,323,0,0,0,2.95,33.07l59.4,10,19.95,56.25L303.59,714.9A303.59,303.59,0,0,0,346,770l53.94-26.86,49.27,33.71L443.62,837a301.07,301.07,0,0,0,66.57,19.63L538,803l59.69-1.65,30.76,51.88a302,302,0,0,0,65.4-23.39l-9-59.6,47.28-36.5,55.35,23.72a298.58,298.58,0,0,0,39.16-57.28l-42.31-42.85L801.1,600l58.8-13.33A304.1,304.1,0,0,0,860.84,551.37ZM649.7,661.85a134.42,134.42,0,0,1-189.8-12.28C411,593.64,416.44,508.8,472.32,459.91A134.39,134.39,0,1,1,649.7,661.85Z" transform="translate(-261 -265.42)" style="fill: #e7e7f3"/>
        <path d="M708.83,431C637.14,349.37,512.64,341.24,431,412.93A196.83,196.83,0,0,0,413.2,690.76c71.68,81.61,196.09,89.64,277.68,18S780.55,512.6,708.83,431ZM678.14,694.22c-73.59,64.66-185.81,57.42-250.46-16.2a177.53,177.53,0,0,1,16-250.59c73.66-64.67,186-57.34,250.63,16.3S751.8,629.55,678.14,694.22Z" transform="translate(-261 -265.42)" style="fill: #e7e7f3"/>
        <path d="M447.24,775.55l2,1.34-4.58,59.55-1,.51a301.07,301.07,0,0,0,66.57,19.63l-.54-1L538,803l59.69-1.65,31.35,50.85-.59,1a302,302,0,0,0,65.4-23.39l-1-.43-8-59.17,47.28-36.5,55.29,22.71.06,1a298.58,298.58,0,0,0,39.16-57.28l-1,.27-41.28-43.12L801.1,600l58-14.07.76.74a304.1,304.1,0,0,0,.94-35.27,283.7,283.7,0,0,0-3.11-34.09l-.63.86-16.66-3C728.91,675.94,571.81,745.65,447.24,775.55Z" transform="translate(-261 -265.42)" style="fill: #e7e7f3"/>
        <path d="M690.88,708.72a195.82,195.82,0,0,0,57.79-88.55q-16.38,14.94-33.26,28.24a177.32,177.32,0,0,1-153.63,89.88q-20.19,8.46-40,15.37A196.5,196.5,0,0,0,690.88,708.72Z" transform="translate(-261 -265.42)" style="fill: #e7e7f3"/>
      </g>
      <path d="M440,338.05l-5.72-48.31s28.57-15.07,50.39-18.71C484.68,271,449.36,284,440,338.05Z" transform="translate(-261 -265.42)" style="fill: #e7e7f3"/>
    </g>
  </g>
</svg>
