<svg id="Слой_1" data-name="Слой 1" xmlns="http://www.w3.org/2000/svg" viewBox="0 0 92.59 61.17">
  <g id="_13" data-name="13">
    <g>
      <g>
        <path d="M326.43,372.31c-3.86-2.23-7-.44-7,4a15.36,15.36,0,0,0,7,12.06c3.85,2.23,7,.44,7-4A15.29,15.29,0,0,0,326.43,372.31Z" transform="translate(-276.95 -365.42)" style="fill: #c5c0b6"/>
        <path d="M326.43,372.31c-3.86-2.23-7-.44-7,4a15.36,15.36,0,0,0,7,12.06c3.85,2.23,7,.44,7-4A15.29,15.29,0,0,0,326.43,372.31Zm-.22,15.16a13.51,13.51,0,0,1-6.13-10.62c0-3.9,2.77-5.47,6.17-3.51A13.54,13.54,0,0,1,332.38,384C332.37,387.86,329.6,389.43,326.21,387.47Z" transform="translate(-276.95 -365.42)" style="fill: #d9d4cd;opacity: 0.5"/>
        <path d="M326.41,378.85c-.71-.42-1.29-.09-1.29.73a2.83,2.83,0,0,0,1.29,2.23c.71.41,1.29.08,1.29-.74A2.81,2.81,0,0,0,326.41,378.85Z" transform="translate(-276.95 -365.42)" style="fill: #b0ab9f"/>
        <path d="M326.33,379.51a.54.54,0,0,0-.53,0l-1.58.91,1,1.81,1.59-.92a.52.52,0,0,0,.21-.47A1.64,1.64,0,0,0,326.33,379.51Z" transform="translate(-276.95 -365.42)" style="fill: #d9d4cd"/>
      </g>
      <g>
        <g>
          <path d="M321.48,375.16c-3.86-2.22-7-.44-7,4a15.36,15.36,0,0,0,7,12.06c3.85,2.23,7,.44,7-4A15.33,15.33,0,0,0,321.48,375.16Z" transform="translate(-276.95 -365.42)" style="fill: #c5c0b6"/>
          <path d="M321.48,375.16c-3.86-2.22-7-.44-7,4a15.36,15.36,0,0,0,7,12.06c3.85,2.23,7,.44,7-4A15.33,15.33,0,0,0,321.48,375.16Zm-.22,15.17a13.51,13.51,0,0,1-6.13-10.62c0-3.9,2.77-5.47,6.17-3.51a13.52,13.52,0,0,1,6.13,10.61C327.42,390.71,324.65,392.29,321.26,390.33Z" transform="translate(-276.95 -365.42)" style="fill: #d9d4cd;opacity: 0.5"/>
          <path d="M321.46,381.7c-.71-.41-1.29-.08-1.29.74a2.83,2.83,0,0,0,1.29,2.23c.71.41,1.29.08,1.29-.74A2.83,2.83,0,0,0,321.46,381.7Z" transform="translate(-276.95 -365.42)" style="fill: #b0ab9f"/>
          <path d="M321.38,382.37a.52.52,0,0,0-.53-.05l-6.49,3.75,1.06,1.81,6.49-3.75a.53.53,0,0,0,.21-.48A1.64,1.64,0,0,0,321.38,382.37Z" transform="translate(-276.95 -365.42)" style="fill: #d9d4cd"/>
        </g>
        <g>
          <path d="M313.46,379.8c-3.86-2.23-7-.44-7,4a15.32,15.32,0,0,0,7,12.06c3.86,2.23,7,.44,7-4A15.35,15.35,0,0,0,313.46,379.8Z" transform="translate(-276.95 -365.42)" style="fill: #c5c0b6"/>
          <path d="M313.46,379.8c-3.86-2.23-7-.44-7,4a15.32,15.32,0,0,0,7,12.06c3.86,2.23,7,.44,7-4A15.35,15.35,0,0,0,313.46,379.8ZM313.23,395a13.5,13.5,0,0,1-6.13-10.62c0-3.89,2.77-5.47,6.17-3.51a13.51,13.51,0,0,1,6.13,10.61C319.39,395.35,316.63,396.92,313.23,395Z" transform="translate(-276.95 -365.42)" style="fill: #d9d4cd;opacity: 0.5"/>
          <path d="M313.44,386.34c-.72-.41-1.3-.08-1.3.73a2.85,2.85,0,0,0,1.29,2.23c.71.41,1.29.08,1.29-.74A2.81,2.81,0,0,0,313.44,386.34Z" transform="translate(-276.95 -365.42)" style="fill: #b0ab9f"/>
          <path d="M313.35,387a.5.5,0,0,0-.52-.05l-6.49,3.75,1.05,1.8,6.49-3.75a.52.52,0,0,0,.21-.47A1.62,1.62,0,0,0,313.35,387Z" transform="translate(-276.95 -365.42)" style="fill: #d9d4cd"/>
        </g>
        <g>
          <path d="M305.43,384.43c-3.86-2.23-7-.44-7,4a15.38,15.38,0,0,0,7,12.06c3.86,2.22,7,.44,7-4A15.35,15.35,0,0,0,305.43,384.43Z" transform="translate(-276.95 -365.42)" style="fill: #c5c0b6"/>
          <path d="M305.43,384.43c-3.86-2.23-7-.44-7,4a15.38,15.38,0,0,0,7,12.06c3.86,2.22,7,.44,7-4A15.35,15.35,0,0,0,305.43,384.43Zm-.23,15.16A13.52,13.52,0,0,1,299.07,389c0-3.9,2.78-5.47,6.17-3.51a13.49,13.49,0,0,1,6.13,10.61C311.36,400,308.6,401.56,305.2,399.59Z" transform="translate(-276.95 -365.42)" style="fill: #d9d4cd;opacity: 0.5"/>
          <path d="M305.41,391c-.71-.41-1.29-.08-1.29.74a2.82,2.82,0,0,0,1.28,2.23c.72.41,1.3.08,1.3-.74A2.85,2.85,0,0,0,305.41,391Z" transform="translate(-276.95 -365.42)" style="fill: #b0ab9f"/>
          <path d="M305.33,391.64a.52.52,0,0,0-.53-.05l-6.49,3.75,1.05,1.81,6.5-3.75a.54.54,0,0,0,.21-.48A1.64,1.64,0,0,0,305.33,391.64Z" transform="translate(-276.95 -365.42)" style="fill: #d9d4cd"/>
        </g>
        <g>
          <path d="M297.4,389.07c-3.86-2.23-7-.44-7,4a15.31,15.31,0,0,0,7,12.06c3.86,2.23,7,.44,7-4A15.29,15.29,0,0,0,297.4,389.07Z" transform="translate(-276.95 -365.42)" style="fill: #c5c0b6"/>
          <path d="M297.4,389.07c-3.86-2.23-7-.44-7,4a15.31,15.31,0,0,0,7,12.06c3.86,2.23,7,.44,7-4A15.29,15.29,0,0,0,297.4,389.07Zm-.22,15.16a13.51,13.51,0,0,1-6.13-10.62c0-3.9,2.77-5.47,6.17-3.51a13.54,13.54,0,0,1,6.13,10.61C303.34,404.62,300.57,406.19,297.18,404.23Z" transform="translate(-276.95 -365.42)" style="fill: #d9d4cd;opacity: 0.5"/>
          <path d="M297.38,395.61c-.71-.42-1.29-.09-1.29.73a2.83,2.83,0,0,0,1.29,2.23c.71.41,1.29.08,1.29-.74A2.81,2.81,0,0,0,297.38,395.61Z" transform="translate(-276.95 -365.42)" style="fill: #b0ab9f"/>
          <path d="M297.3,396.27a.54.54,0,0,0-.53,0L290.28,400l1.06,1.81,6.49-3.75a.52.52,0,0,0,.21-.47A1.64,1.64,0,0,0,297.3,396.27Z" transform="translate(-276.95 -365.42)" style="fill: #d9d4cd"/>
        </g>
        <g>
          <path d="M289.38,393.7c-3.86-2.23-7-.44-7,4a15.32,15.32,0,0,0,7,12.05c3.86,2.23,7,.44,7-4A15.38,15.38,0,0,0,289.38,393.7Z" transform="translate(-276.95 -365.42)" style="fill: #c5c0b6"/>
          <path d="M289.38,393.7c-3.86-2.23-7-.44-7,4a15.32,15.32,0,0,0,7,12.05c3.86,2.23,7,.44,7-4A15.38,15.38,0,0,0,289.38,393.7Zm-.23,15.16A13.49,13.49,0,0,1,283,398.25c0-3.9,2.77-5.48,6.17-3.52a13.53,13.53,0,0,1,6.13,10.62C295.31,409.25,292.55,410.82,289.15,408.86Z" transform="translate(-276.95 -365.42)" style="fill: #d9d4cd;opacity: 0.5"/>
          <path d="M289.36,400.24c-.72-.41-1.29-.08-1.3.74a2.83,2.83,0,0,0,1.29,2.22c.71.42,1.29.09,1.29-.73A2.82,2.82,0,0,0,289.36,400.24Z" transform="translate(-276.95 -365.42)" style="fill: #b0ab9f"/>
          <path d="M289.28,400.91a.52.52,0,0,0-.53-.05l-1.59.92,1.06,1.8,1.58-.91a.54.54,0,0,0,.21-.48A1.64,1.64,0,0,0,289.28,400.91Z" transform="translate(-276.95 -365.42)" style="fill: #d9d4cd"/>
        </g>
      </g>
      <g>
        <path d="M321.48,375.16a11.34,11.34,0,0,1,1.26.87v-5.37l-2.15-1.25v5.31A9.17,9.17,0,0,1,321.48,375.16Z" transform="translate(-276.95 -365.42)" style="fill: #b0ab9f"/>
        <g style="isolation: isolate">
          <polygon points="10.76 40.18 8.61 38.93 8.56 24.24 10.71 25.49 10.76 40.18" style="fill: #b0ab9f"/>
          <polygon points="9.38 26.26 7.23 25.01 7.22 22.64 9.37 23.89 9.38 26.26" style="fill: #c5c0b6"/>
          <polygon points="9.37 23.89 7.22 22.64 46.43 0 48.58 1.25 9.37 23.89" style="fill: #f0ece6"/>
        </g>
        <path d="M322.73,370.66V376a13.56,13.56,0,0,1,1.49,1.36l0-7.58,1.34-.77v-2.37l-39.21,22.64v2.37l1.34-.77,0,14.68,1.48-.85-.05-14.68Z" transform="translate(-276.95 -365.42)" style="fill: #d9d4cd"/>
      </g>
      <g>
        <path d="M284,396.83c-3.85-2.23-7-.44-7,4a15.33,15.33,0,0,0,7,12.06c3.86,2.22,7,.44,7-4A15.36,15.36,0,0,0,284,396.83Z" transform="translate(-276.95 -365.42)" style="fill: #c5c0b6"/>
        <path d="M284,396.83c-3.85-2.23-7-.44-7,4a15.33,15.33,0,0,0,7,12.06c3.86,2.22,7,.44,7-4A15.36,15.36,0,0,0,284,396.83ZM283.73,412a13.49,13.49,0,0,1-6.13-10.61c0-3.9,2.77-5.48,6.17-3.51a13.52,13.52,0,0,1,6.13,10.61C289.89,412.38,287.12,414,283.73,412Z" transform="translate(-276.95 -365.42)" style="fill: #d9d4cd;opacity: 0.5"/>
        <path d="M283.94,403.37c-.72-.41-1.3-.08-1.3.74a2.84,2.84,0,0,0,1.29,2.23c.71.41,1.29.08,1.29-.74A2.84,2.84,0,0,0,283.94,403.37Z" transform="translate(-276.95 -365.42)" style="fill: #b0ab9f"/>
        <path d="M283.93,403.88c-.47-.28-.85-.06-.85.48a1.87,1.87,0,0,0,.85,1.47c.47.27.85.05.85-.49A1.86,1.86,0,0,0,283.93,403.88Z" transform="translate(-276.95 -365.42)" style="fill: #d9d4cd"/>
      </g>
    </g>
    <g>
      <g id="Axonometric_Cube" data-name="Axonometric Cube">
        <polygon id="Cube_face_-_left" data-name="Cube face - left" points="56.76 23.4 34.68 10.65 34.68 9.28 56.76 22.03 56.76 23.4" style="fill: #c5c0b6"/>
        <polygon id="Cube_face_-_right" data-name="Cube face - right" points="58.71 22.28 56.76 23.4 56.76 22.03 58.71 20.9 58.71 22.28" style="fill: #c5c0b6"/>
        <polygon id="Cube_face_-_top" data-name="Cube face - top" points="56.76 22.03 34.68 9.28 36.63 8.15 58.71 20.9 56.76 22.03" style="fill: #f0ece6"/>
      </g>
      <g id="Axonometric_Cube-2" data-name="Axonometric Cube">
        <polygon id="Cube_face_-_left-2" data-name="Cube face - left" points="43.74 30.92 21.66 18.17 21.66 16.8 43.74 29.54 43.74 30.92" style="fill: #c5c0b6"/>
        <polygon id="Cube_face_-_right-2" data-name="Cube face - right" points="45.69 29.79 43.74 30.92 43.74 29.54 45.69 28.42 45.69 29.79" style="fill: #c5c0b6"/>
        <polygon id="Cube_face_-_top-2" data-name="Cube face - top" points="43.74 29.54 21.66 16.8 23.61 15.67 45.69 28.42 43.74 29.54" style="fill: #f0ece6"/>
      </g>
    </g>
    <g>
      <g>
        <path d="M348.51,385.05c-3.85-2.22-7-.44-7,4a15.33,15.33,0,0,0,7,12.06c3.86,2.23,7,.44,7-4A15.36,15.36,0,0,0,348.51,385.05Z" transform="translate(-276.95 -365.42)" style="fill: #c5c0b6"/>
        <path d="M348.51,385.05c-3.85-2.22-7-.44-7,4a15.33,15.33,0,0,0,7,12.06c3.86,2.23,7,.44,7-4A15.36,15.36,0,0,0,348.51,385.05Zm-.22,15.17a13.51,13.51,0,0,1-6.13-10.62c0-3.9,2.77-5.47,6.17-3.51a13.49,13.49,0,0,1,6.13,10.61C354.45,400.6,351.69,402.18,348.29,400.22Z" transform="translate(-276.95 -365.42)" style="fill: #d9d4cd;opacity: 0.5"/>
        <path d="M348.5,391.59c-.72-.41-1.3-.08-1.3.74a2.83,2.83,0,0,0,1.29,2.23c.71.41,1.29.08,1.29-.74A2.86,2.86,0,0,0,348.5,391.59Z" transform="translate(-276.95 -365.42)" style="fill: #b0ab9f"/>
        <path d="M348.41,392.26a.5.5,0,0,0-.52-.05l-1.59.92,1.05,1.81,1.59-.92a.53.53,0,0,0,.21-.48A1.64,1.64,0,0,0,348.41,392.26Z" transform="translate(-276.95 -365.42)" style="fill: #d9d4cd"/>
      </g>
      <g>
        <g>
          <path d="M343.56,387.91c-3.85-2.23-7-.44-7,4a15.33,15.33,0,0,0,7,12.06c3.86,2.23,7,.44,7-4A15.36,15.36,0,0,0,343.56,387.91Z" transform="translate(-276.95 -365.42)" style="fill: #c5c0b6"/>
          <path d="M343.56,387.91c-3.85-2.23-7-.44-7,4a15.33,15.33,0,0,0,7,12.06c3.86,2.23,7,.44,7-4A15.36,15.36,0,0,0,343.56,387.91Zm-.22,15.17a13.53,13.53,0,0,1-6.13-10.62c0-3.9,2.77-5.47,6.17-3.51a13.49,13.49,0,0,1,6.13,10.61C349.5,403.46,346.74,405,343.34,403.08Z" transform="translate(-276.95 -365.42)" style="fill: #d9d4cd;opacity: 0.5"/>
          <path d="M343.55,394.45c-.72-.41-1.3-.08-1.3.74a2.83,2.83,0,0,0,1.29,2.23c.71.41,1.29.08,1.29-.74A2.84,2.84,0,0,0,343.55,394.45Z" transform="translate(-276.95 -365.42)" style="fill: #b0ab9f"/>
          <path d="M343.46,395.12a.5.5,0,0,0-.52-.05l-6.5,3.75,1.06,1.81,6.49-3.75a.53.53,0,0,0,.21-.48A1.64,1.64,0,0,0,343.46,395.12Z" transform="translate(-276.95 -365.42)" style="fill: #d9d4cd"/>
        </g>
        <g>
          <path d="M335.54,392.55c-3.86-2.23-7-.44-7,4a15.34,15.34,0,0,0,7,12.06c3.86,2.23,7,.44,7-4A15.32,15.32,0,0,0,335.54,392.55Z" transform="translate(-276.95 -365.42)" style="fill: #c5c0b6"/>
          <path d="M335.54,392.55c-3.86-2.23-7-.44-7,4a15.34,15.34,0,0,0,7,12.06c3.86,2.23,7,.44,7-4A15.32,15.32,0,0,0,335.54,392.55Zm-.23,15.16a13.5,13.5,0,0,1-6.13-10.62c0-3.9,2.77-5.47,6.17-3.51a13.51,13.51,0,0,1,6.13,10.61C341.47,408.1,338.71,409.67,335.31,407.71Z" transform="translate(-276.95 -365.42)" style="fill: #d9d4cd;opacity: 0.5"/>
          <path d="M335.52,399.09c-.71-.42-1.29-.08-1.3.73a2.85,2.85,0,0,0,1.29,2.23c.71.41,1.29.08,1.3-.74A2.85,2.85,0,0,0,335.52,399.09Z" transform="translate(-276.95 -365.42)" style="fill: #b0ab9f"/>
          <path d="M335.44,399.76a.52.52,0,0,0-.53-.05l-6.49,3.75,1.05,1.8,6.49-3.75a.5.5,0,0,0,.22-.47A1.61,1.61,0,0,0,335.44,399.76Z" transform="translate(-276.95 -365.42)" style="fill: #d9d4cd"/>
        </g>
        <g>
          <path d="M327.51,397.18c-3.86-2.23-7-.44-7,4a15.36,15.36,0,0,0,7,12.06c3.85,2.22,7,.44,7-4A15.32,15.32,0,0,0,327.51,397.18Z" transform="translate(-276.95 -365.42)" style="fill: #c5c0b6"/>
          <path d="M327.51,397.18c-3.86-2.23-7-.44-7,4a15.36,15.36,0,0,0,7,12.06c3.85,2.22,7,.44,7-4A15.32,15.32,0,0,0,327.51,397.18Zm-.22,15.16a13.47,13.47,0,0,1-6.13-10.61c0-3.9,2.77-5.48,6.17-3.51a13.52,13.52,0,0,1,6.13,10.61C333.44,412.73,330.68,414.31,327.29,412.34Z" transform="translate(-276.95 -365.42)" style="fill: #d9d4cd;opacity: 0.5"/>
          <path d="M327.49,403.72c-.71-.41-1.29-.08-1.29.74a2.86,2.86,0,0,0,1.28,2.23c.72.41,1.3.08,1.3-.74A2.83,2.83,0,0,0,327.49,403.72Z" transform="translate(-276.95 -365.42)" style="fill: #b0ab9f"/>
          <path d="M327.41,404.39a.52.52,0,0,0-.53-.05l-6.49,3.75,1.06,1.8,6.49-3.74a.54.54,0,0,0,.21-.48A1.64,1.64,0,0,0,327.41,404.39Z" transform="translate(-276.95 -365.42)" style="fill: #d9d4cd"/>
        </g>
        <g>
          <path d="M319.49,401.81c-3.86-2.22-7-.44-7,4a15.35,15.35,0,0,0,7,12.06c3.86,2.23,7,.44,7-4A15.38,15.38,0,0,0,319.49,401.81Z" transform="translate(-276.95 -365.42)" style="fill: #c5c0b6"/>
          <path d="M319.48,401.81c-3.85-2.22-7-.44-7,4a15.33,15.33,0,0,0,7,12.06c3.86,2.23,7,.44,7-4A15.36,15.36,0,0,0,319.48,401.81ZM319.26,417a13.51,13.51,0,0,1-6.13-10.62c0-3.9,2.77-5.47,6.17-3.51a13.49,13.49,0,0,1,6.13,10.61C325.42,417.37,322.66,418.94,319.26,417Z" transform="translate(-276.95 -365.42)" style="fill: #d9d4cd;opacity: 0.5"/>
          <path d="M319.47,408.35c-.72-.41-1.3-.08-1.3.74a2.85,2.85,0,0,0,1.29,2.23c.71.41,1.29.08,1.29-.74A2.83,2.83,0,0,0,319.47,408.35Z" transform="translate(-276.95 -365.42)" style="fill: #b0ab9f"/>
          <path d="M319.38,409a.48.48,0,0,0-.52,0l-6.5,3.74,1.06,1.81,6.49-3.75a.53.53,0,0,0,.21-.48A1.64,1.64,0,0,0,319.38,409Z" transform="translate(-276.95 -365.42)" style="fill: #d9d4cd"/>
        </g>
        <g>
          <path d="M311.46,406.45c-3.86-2.23-7-.44-7,4a15.35,15.35,0,0,0,7,12.05c3.86,2.23,7,.44,7-4A15.33,15.33,0,0,0,311.46,406.45Z" transform="translate(-276.95 -365.42)" style="fill: #c5c0b6"/>
          <path d="M311.46,406.45c-3.86-2.23-7-.44-7,4a15.35,15.35,0,0,0,7,12.05c3.86,2.23,7,.44,7-4A15.33,15.33,0,0,0,311.46,406.45Zm-.23,15.16A13.52,13.52,0,0,1,305.1,411c0-3.89,2.78-5.47,6.17-3.51a13.53,13.53,0,0,1,6.13,10.62C317.39,422,314.63,423.57,311.23,421.61Z" transform="translate(-276.95 -365.42)" style="fill: #d9d4cd;opacity: 0.5"/>
          <path d="M311.44,413c-.71-.41-1.29-.08-1.29.74a2.81,2.81,0,0,0,1.28,2.22c.71.42,1.29.09,1.3-.73A2.85,2.85,0,0,0,311.44,413Z" transform="translate(-276.95 -365.42)" style="fill: #b0ab9f"/>
          <path d="M311.36,413.66a.52.52,0,0,0-.53-.05l-1.59.92,1.06,1.8,1.59-.92a.51.51,0,0,0,.21-.47A1.62,1.62,0,0,0,311.36,413.66Z" transform="translate(-276.95 -365.42)" style="fill: #d9d4cd"/>
        </g>
      </g>
      <g>
        <path d="M343.56,387.91a10.59,10.59,0,0,1,1.27.87l0-5.37-2.15-1.25,0,5.31C343,387.6,343.26,387.74,343.56,387.91Z" transform="translate(-276.95 -365.42)" style="fill: #b0ab9f"/>
        <g style="isolation: isolate">
          <polygon points="32.84 52.92 30.69 51.67 30.65 36.99 32.8 38.24 32.84 52.92" style="fill: #b0ab9f"/>
          <polygon points="31.46 39.01 29.31 37.76 29.3 35.39 31.45 36.64 31.46 39.01" style="fill: #c5c0b6"/>
          <polygon points="31.45 36.64 29.3 35.39 68.51 12.75 70.66 14 31.45 36.64" style="fill: #f0ece6"/>
        </g>
        <path d="M344.81,383.41l0,5.37a14.44,14.44,0,0,1,1.48,1.36l0-7.58,1.33-.77v-2.37L308.4,402.06v2.37l1.34-.77,0,14.68,1.48-.85,0-14.69Z" transform="translate(-276.95 -365.42)" style="fill: #d9d4cd"/>
      </g>
      <g>
        <path d="M306,409.58c-3.86-2.23-7-.44-7,4a15.32,15.32,0,0,0,7,12.05c3.86,2.23,7,.44,7-4A15.38,15.38,0,0,0,306,409.58Z" transform="translate(-276.95 -365.42)" style="fill: #c5c0b6"/>
        <path d="M306,409.58c-3.86-2.23-7-.44-7,4a15.32,15.32,0,0,0,7,12.05c3.86,2.23,7,.44,7-4A15.38,15.38,0,0,0,306,409.58Zm-.23,15.16a13.49,13.49,0,0,1-6.13-10.61c0-3.9,2.77-5.48,6.17-3.52A13.53,13.53,0,0,1,312,421.23C312,425.13,309.21,426.7,305.81,424.74Z" transform="translate(-276.95 -365.42)" style="fill: #d9d4cd;opacity: 0.5"/>
        <path d="M306,416.12c-.72-.41-1.3-.08-1.3.74a2.83,2.83,0,0,0,1.29,2.22c.71.42,1.29.09,1.29-.73A2.82,2.82,0,0,0,306,416.12Z" transform="translate(-276.95 -365.42)" style="fill: #b0ab9f"/>
        <path d="M306,416.63c-.47-.28-.86-.06-.86.48a1.87,1.87,0,0,0,.85,1.47c.47.27.85.05.85-.49A1.85,1.85,0,0,0,306,416.63Z" transform="translate(-276.95 -365.42)" style="fill: #d9d4cd"/>
      </g>
      <g style="isolation: isolate">
        <polygon points="62.13 18.92 62.13 21.05 88.55 46.25 88.56 44.12 62.13 18.92" style="fill: #c5c0b6"/>
        <polygon points="39.19 32.18 39.18 34.3 88.09 51.16 88.1 49.03 39.19 32.18" style="fill: #c5c0b6"/>
        <polygon points="88.1 49.03 88.09 51.16 92.58 48.55 92.59 46.42 88.1 49.03" style="fill: #d9d4cd"/>
        <polygon points="63.42 18.17 62.13 18.92 88.56 44.12 84.12 46.7 40.47 31.43 39.19 32.18 88.1 49.03 92.59 46.42 63.42 18.17" style="fill: #f0ece6"/>
      </g>
    </g>
  </g>
</svg>
