<svg id="Слой_1" data-name="Слой 1" xmlns="http://www.w3.org/2000/svg" viewBox="0 0 196.6 158.65">
  <path d="M366.72,399.42l-3.53-3.95-2.13,2.15V382.93c9.18-5.06,16.29-14.92,19.31-27.38a2.26,2.26,0,0,0,.45.1,3.15,3.15,0,0,0,.44,0c2.75,0,5.4-3.89,6.15-9.05s-.63-9.48-3.17-10.39v0l0-.19a49.66,49.66,0,0,0-5.14-18.52c.91-4.28.26-7.87-1.91-10.65-3.4-4.36-10.46-6.7-21-7-11.84-.29-24.48,2.25-26.22,2.88a20.28,20.28,0,0,1-5.92.88c-1.73.06-3.07,0-3.08,0l-1-.05.23.93a9.76,9.76,0,0,0,.67,1.72l-.23-.08A69.62,69.62,0,0,1,314,303l-.92-.5-.13,1a18.05,18.05,0,0,0,1.38,9.24,20.87,20.87,0,0,0,1.17,2.33c-.41-.14-.81-.29-1.1-.42l-1.27-.54.28,1.35a28.91,28.91,0,0,0,1.06,3.88c-3.12,2.64-4.95,8.35-5.45,17-1.72,1.55-2.6,5.22-2.2,9.34.32,3.32,1.39,6.16,2.79,7.72H216.93a6.4,6.4,0,0,0-6.38,6.35V427a6.4,6.4,0,0,0,6.38,6.36h33.78a.75.75,0,0,0,0,.24v8.61c0,.09,0,.23,0,.33l-16.27,11h64.87l-16.29-11c0-.1,0-.23,0-.33v-8.61a1.29,1.29,0,0,0,0-.24h11.28a57.58,57.58,0,0,0-1.37,6.14l-.14.86H401.45l-.23-.94C398.55,429.06,389.85,404.53,366.72,399.42Zm-3.54-1.84,2.08,2.35.25.28-.69,1.73-3.68,9.33-.83,2.11-2.6,6.58-3.12-2.52-1.46-1.18-2.42-2-1.14-.92-.82-.66-.14-.12.41-.43.22-.22,3.55-3.66,6.92-7.14,1.43-1.47Zm-35.57,2.62c-1.15.28-2.62.72-4.49,1.37V374.1a34.57,34.57,0,0,0,9.94,8.63v14.4l-1.64-1.65-3.94,4.46Zm1.91-.4,2-2.23,1.59,1.59,1.43,1.44,7,7,4.31,4.33.14.14.52.52-.13.1-.84.67L340,417.84l-2.27,1.83-2.75-6.29-1.85-4.23-3.47-7.91-.45-1Zm5-1.23,0-15.07a28.26,28.26,0,0,0,12,3.12h.77a27.8,27.8,0,0,0,12.39-3V399.1l-12.14,12.54Zm-18.8-78.4.47-.34-.23-.53a18.76,18.76,0,0,1-.88-2.83,6,6,0,0,0,1.7.35,1.87,1.87,0,0,0,.34,0l1.13-.22-.71-.92a17.08,17.08,0,0,1-1.92-3.45,16.9,16.9,0,0,1-1.38-7.45,60,60,0,0,0,5.95,2.77,4.92,4.92,0,0,0,2,.45l1-.1-.43-.91s-.28-.6-.57-1.27l-.25-.57c.55,0,1.29,0,2.12,0a21.68,21.68,0,0,0,6.36-1c1.69-.61,14-3.08,25.7-2.8,10.06.24,16.74,2.4,19.87,6.4,1.94,2.49,2.48,5.76,1.59,9.73l-.06.26.13.24a48.42,48.42,0,0,1,5.09,18.16l-.25.05h0a3.92,3.92,0,0,0-.89.35,5.51,5.51,0,0,0-1.34,1.05,11.12,11.12,0,0,0-2.19,3.69,9.71,9.71,0,0,0-1.41,3.82c-2.44-2.95-7.77-10.42-8.63-20.23l-.16-1.77-1.12,1.39s-.29.37-.84,1a40.94,40.94,0,0,1-20.66,5.73,38.49,38.49,0,0,1-21.07-6.4l-.93-.59-.16,1.09c0,.1-1.52,9.89-3.34,16.68h-.09l-2.48,6-.74-.87a18.09,18.09,0,0,0-.09-2.33,15.73,15.73,0,0,0-2.08-6.79,4.58,4.58,0,0,0-3.12-2.4h-.05a1.85,1.85,0,0,0-.47,0l-.19,0C311,327.59,312.83,322.28,315.71,320.17Zm-7.5,25.36c-.41-4.22.64-7.36,1.89-8.27a1.33,1.33,0,0,1,.68-.29,1.08,1.08,0,0,1,.18,0l.18,0,.11,0,.18.06.12.06.15.08.16.1,0,0,.28.23.21.22.05.05.24.29,0,0c.09.11.17.23.26.35l.15.23a14.64,14.64,0,0,1,1.84,6.14,19.56,19.56,0,0,1,.07,2.42v.28l2.63,3.07,2.95-7.16.24,0,.16-.6c1.55-5.58,2.9-13.51,3.36-16.36a39.73,39.73,0,0,0,20.92,6,42.47,42.47,0,0,0,21.5-6l0,0a39.55,39.55,0,0,0,10.09,20.89l1.49,1.49-.28-2.09a7.41,7.41,0,0,1,1.25-4.92l.06-.13a9.81,9.81,0,0,1,1.95-3.31l.18-.17a3.48,3.48,0,0,1,.3-.26l0,0,.3-.21,0,0,.28-.15.32-.12h.08l.14,0,.21,0h.26c1.76.3,3.22,4,2.5,8.91s-3,7.82-4.73,7.82l-.23,0a1.64,1.64,0,0,1-.72-.3l-.87-.62-.24,1c-2.72,12.14-9.49,21.83-18.07,26.93-.47.28-.95.54-1.43.8a26.73,26.73,0,0,1-12.42,3.13h-.75a27,27,0,0,1-12.05-3.3c-.49-.26-1-.54-1.43-.83a34.85,34.85,0,0,1-9.94-9.3v-12a6.36,6.36,0,0,0-6.34-6.35h-1.6c-.05-.16-.1-.48-.15-.72l-.33-1.73-1,1.47a2.42,2.42,0,0,1-1.17,1h-.63C310.41,353.08,308.63,350,308.21,345.53ZM294.61,452H239.1l12.57-8.4H282Zm-42.55-9.8v-8.62a.54.54,0,0,1,.08-.24h29.43a.75.75,0,0,1,0,.24v8.62Zm30.78-10.26H216.93a4.89,4.89,0,0,1-4.83-5V359.74a4.89,4.89,0,0,1,4.83-4.95h99.85a5,5,0,0,1,4.94,4.95V427a5,5,0,0,1-4.94,5H282.84Zm60.58,6.84H294.47c.36-1.86.8-3.73,1.3-5.44h21a6.37,6.37,0,0,0,6.34-6.36V403.11a38.89,38.89,0,0,1,5.08-1.57l4.89,11.19.29.65,3.75,8.58,3.49-2.81,3.93,7.79Zm1.44,0L346,426.66l-4.26-8.44,5.78-4.64L353,418l-4.37,8.65,1.11,12.09Zm6.32,0-1.07-11.81,4-8,4.17,3.38,8.45-21.42c21.45,5,30,27.45,32.82,37.87Z" transform="translate(-208.05 -297.37)" style="fill: #e7e7f3;stroke: #e7e7f3;stroke-miterlimit: 10;stroke-width: 5px"/>
</svg>
