<svg id="Слой_1" data-name="Слой 1" xmlns="http://www.w3.org/2000/svg" viewBox="0 0 57.68 38.11">
  <g id="_164_Add_Contact_User_Twitter" data-name="164, Add, Contact, User, Twitter">
    <g>
      <g>
        <path d="M334.18,412.63v1.61h-22v-1.71a16.75,16.75,0,0,0-5.65-12.5,16.64,16.64,0,0,1,27.63,12.6Z" transform="translate(-277.61 -377.44)" style="fill: #e7e7f3"/>
        <path d="M306.55,400.13a16.75,16.75,0,0,1,5.65,12.5v1.61H278.93v-1.71a16.51,16.51,0,0,1,16.63-16.64A17.48,17.48,0,0,1,306.55,400.13Z" transform="translate(-277.61 -377.44)" style="fill: #e7e7f3"/>
        <path d="M317.54,378.65a8.68,8.68,0,1,1-8.67,8.68A8.68,8.68,0,0,1,317.54,378.65Z" transform="translate(-277.61 -377.44)" style="fill: #e7e7f3"/>
        <path d="M295.56,378.65a8.68,8.68,0,1,1-8.67,8.68A8.68,8.68,0,0,1,295.56,378.65Z" transform="translate(-277.61 -377.44)" style="fill: #fff"/>
      </g>
      <g>
        <path d="M295.56,397.21a9.89,9.89,0,1,1,9.88-9.88A9.9,9.9,0,0,1,295.56,397.21Zm0-17.24a7.36,7.36,0,1,0,7.36,7.36A7.4,7.4,0,0,0,295.56,380Z" transform="translate(-277.61 -377.44)" style="fill: #e7e7f3"/>
        <path d="M334.18,415.56h-22a1.32,1.32,0,0,1,0-2.63h20.66v-.4a15.42,15.42,0,0,0-15.42-15.43,15.23,15.23,0,0,0-10.18,3.84,1.29,1.29,0,1,1-1.72-1.92,17.93,17.93,0,0,1,29.74,13.51v1.61C335.39,415.05,334.88,415.56,334.18,415.56Z" transform="translate(-277.61 -377.44)" style="fill: #e7e7f3"/>
        <path d="M312.2,415.56H278.93a1.35,1.35,0,0,1-1.32-1.32v-1.71a17.92,17.92,0,0,1,17.95-17.95,18,18,0,0,1,17.95,17.85V414A1.34,1.34,0,0,1,312.2,415.56Zm-32-2.53H311v-.4a15.42,15.42,0,0,0-15.43-15.42,15.47,15.47,0,0,0-15.42,15.42v.4Z" transform="translate(-277.61 -377.44)" style="fill: #e7e7f3"/>
        <path d="M317.54,397.21a9.89,9.89,0,1,1,9.88-9.88A9.9,9.9,0,0,1,317.54,397.21Zm0-17.24a7.36,7.36,0,1,0,7.36,7.36A7.4,7.4,0,0,0,317.54,380Z" transform="translate(-277.61 -377.44)" style="fill: #e7e7f3"/>
      </g>
    </g>
  </g>
</svg>
