<svg xmlns="http://www.w3.org/2000/svg" viewBox="0 0 204.53 204.53">
  <g id="OBJECTS">
    <g>
      <g>
        <path d="M25.56,140.47a89.16,89.16,0,0,1,1-20.26A85.15,85.15,0,0,1,42.44,83.46,83.45,83.45,0,0,1,56.25,69,82.09,82.09,0,0,1,73,58.18a83.76,83.76,0,0,1,38.37-8.5h.27V50h0A61.82,61.82,0,0,1,128,171.32c1.2-.26,2.4-.55,3.58-.86a82,82,0,0,0,35-19.76,82.41,82.41,0,0,0,12.75-15.57,80.9,80.9,0,0,0,10.31-61.88,17.6,17.6,0,0,1,1.45-27.85A105.7,105.7,0,0,0,177.73,32,17.67,17.67,0,0,1,147.25,14.4,102.4,102.4,0,0,0,129,9.51a17.67,17.67,0,0,1-35.21,0A102.63,102.63,0,0,0,75.46,14.4,17.66,17.66,0,0,1,45,32,104.4,104.4,0,0,0,31.61,45.4,17.67,17.67,0,0,1,14,75.88,102.63,102.63,0,0,0,9.09,94.17a17.67,17.67,0,0,1,0,35.21A102.63,102.63,0,0,0,14,147.67a17.62,17.62,0,0,1,12.21-1C25.91,144.59,25.69,142.53,25.56,140.47Z" transform="translate(-9.09 -9.51)" style="fill: #00b2da"/>
        <path d="M197.44,111.78a17.68,17.68,0,0,1,16.18-17.61,103.46,103.46,0,0,0-4.88-18.29,17.59,17.59,0,0,1-12.34,1,85.83,85.83,0,0,1,.34,21,84.78,84.78,0,0,1-14.4,39.22,84.2,84.2,0,0,1-50.46,34.61,87.11,87.11,0,0,1-20.52,2.15h-.27v-.26h0A61.82,61.82,0,0,1,93.86,52.48,81.81,81.81,0,0,0,45.34,85.56,80.78,80.78,0,0,0,31.65,121a83.77,83.77,0,0,0-.24,19,80.3,80.3,0,0,0,1.83,10.48,17.64,17.64,0,0,1-1.63,27.7A104.4,104.4,0,0,0,45,191.53a17.66,17.66,0,0,1,30.47,17.62A102.63,102.63,0,0,0,93.75,214,17.67,17.67,0,0,1,129,214a102.4,102.4,0,0,0,18.29-4.89,17.67,17.67,0,0,1,30.48-17.62,105.7,105.7,0,0,0,13.38-13.38,17.67,17.67,0,0,1,17.63-30.48,103.46,103.46,0,0,0,4.88-18.29A17.67,17.67,0,0,1,197.44,111.78Z" transform="translate(-9.09 -9.51)" style="fill: #00b2da"/>
      </g>
      <circle cx="102.26" cy="102.26" r="56.14" style="fill: none;stroke: #e6934a;stroke-miterlimit: 10;stroke-width: 3.1847100000000004px"/>
    </g>
    <text transform="translate(59.41 133.98)" style="font-size: 101px;fill: #00b2da;font-family: MVBoli, MV Boli">A</text>
  </g>
</svg>
