<?xml version="1.0" encoding="utf-8"?>
<!DOCTYPE svg PUBLIC "-//W3C//DTD SVG 1.1//EN" "http://www.w3.org/Graphics/SVG/1.1/DTD/svg11.dtd">
<svg version="1.1" xmlns="http://www.w3.org/2000/svg" xmlns:xlink="http://www.w3.org/1999/xlink" x="0px" y="0px" viewBox="0 0 256 256" enable-background="new 0 0 256 256" xml:space="preserve">
<g><g><path fill="#2681fb" d="M128,10C62.7,10,10,62.7,10,128c0,65.3,52.7,118,118,118c65.3,0,118-52.7,118-118C246,62.7,193.3,10,128,10z M201.3,205.5c-2.5-39.6-44.7-50.1-44.7-50.1s25.7-17.3,16.4-52.3c-4.6-18.1-21.9-31.6-45.5-31.6S86.7,85,82.1,103.1c-9.3,35,16.4,52.3,16.4,52.3s-42.1,9.3-44.7,50.1C34,185.7,21.4,158.3,21.4,128C21.4,69,69,21.4,128,21.4S234.6,69,234.6,128C234.6,158.3,222,185.7,201.3,205.5z"/></g></g>
</svg>