<?xml version="1.0" encoding="UTF-8"?>
<!DOCTYPE svg PUBLIC "-//W3C//DTD SVG 1.1//EN" "http://www.w3.org/Graphics/SVG/1.1/DTD/svg11.dtd">
<svg xmlns="http://www.w3.org/2000/svg" version="1.1" width="1786px" height="1949px" style="shape-rendering:geometricPrecision; text-rendering:geometricPrecision; image-rendering:optimizeQuality; fill-rule:evenodd; clip-rule:evenodd" xmlns:xlink="http://www.w3.org/1999/xlink">
<g><path style="opacity:1" fill="#fefefe" d="M -0.5,-0.5 C 594.833,-0.5 1190.17,-0.5 1785.5,-0.5C 1785.5,649.167 1785.5,1298.83 1785.5,1948.5C 1190.17,1948.5 594.833,1948.5 -0.5,1948.5C -0.5,1298.83 -0.5,649.167 -0.5,-0.5 Z"/></g>
<g><path style="opacity:1" fill="#019ee3" d="M 379.5,1226.5 C 329.489,1227.16 279.822,1226.5 230.5,1224.5C 311.958,967.292 394.125,710.292 477,453.5C 495.367,409.734 520.034,370.068 551,334.5C 611.952,265.253 686.452,216.42 774.5,188C 795.45,181.943 816.783,177.943 838.5,176C 1005.17,175.333 1171.83,175.333 1338.5,176C 1396.51,180.258 1445.34,203.425 1485,245.5C 1522.53,293.232 1538.86,347.565 1534,408.5C 1531.98,431.952 1527.64,454.952 1521,477.5C 1440.45,727.308 1360.62,977.308 1281.5,1227.5C 1231.5,1227.5 1181.5,1227.5 1131.5,1227.5C 1162.96,1127.11 1194.63,1026.78 1226.5,926.5C 976.166,926.167 725.832,926.5 475.5,927.5C 443.468,1027.26 411.468,1126.93 379.5,1226.5 Z"/></g>
<g><path style="opacity:1" fill="#fefefe" d="M 1275.5,775.5 C 1025,775.833 774.666,775.5 524.5,774.5C 557.499,669.671 590.999,565.005 625,460.5C 652.765,400.403 697.598,358.569 759.5,335C 773.782,330.129 788.448,327.129 803.5,326C 961.167,325.333 1118.83,325.333 1276.5,326C 1333.26,328.768 1367.09,357.934 1378,413.5C 1379.35,429.341 1378.35,445.008 1375,460.5C 1341.98,565.566 1308.82,670.566 1275.5,775.5 Z"/></g>
<g><path style="opacity:1" fill="#bee6f7" d="M 524.5,774.5 C 774.666,775.5 1025,775.833 1275.5,775.5C 1025,776.833 774.333,776.833 523.5,775.5C 523.624,774.893 523.957,774.56 524.5,774.5 Z"/></g>
<g><path style="opacity:1" fill="#77cbf0" d="M 230.5,1224.5 C 279.822,1226.5 329.489,1227.16 379.5,1226.5C 329.669,1227.5 279.669,1227.83 229.5,1227.5C 229.263,1226.21 229.596,1225.21 230.5,1224.5 Z"/></g>
<g><path style="opacity:1" fill="#ef7c00" d="M 336.5,1643.5 C 628.5,1643.5 920.5,1643.5 1212.5,1643.5C 1212.5,1686.5 1212.5,1729.5 1212.5,1772.5C 920.5,1772.5 628.5,1772.5 336.5,1772.5C 336.5,1729.5 336.5,1686.5 336.5,1643.5 Z"/></g>
<g><path style="opacity:1" fill="#f8c893" d="M 336.5,1643.5 C 336.5,1686.5 336.5,1729.5 336.5,1772.5C 628.5,1772.5 920.5,1772.5 1212.5,1772.5C 920.334,1773.5 628,1773.83 335.5,1773.5C 335.168,1730 335.501,1686.66 336.5,1643.5 Z"/></g>
</svg>
